<?xml version="1.0" standalone="no"?>
<!DOCTYPE svg PUBLIC "-//W3C//DTD SVG 1.1//EN" "http://www.w3.org/Graphics/SVG/1.1/DTD/svg11.dtd" >
<svg>
<metadata>
Created by FontForge 20110222 at Mon Feb  9 18:22:53 2015
 By deploy user
Copyright (c) The Font Bureau, Inc., 2003. All rights reserved.
</metadata>
<defs>
<font id="Antenna" horiz-adv-x="590" >
  <font-face
    font-family="Antenna"
    font-weight="400"
    font-style="italic"
    font-stretch="normal"
    units-per-em="1000"
    panose-1="2 0 5 3 0 0 0 2 0 4"
    ascent="800"
    descent="-200"
    x-height="556"
    cap-height="741"
    bbox="-142 -232 1501 952"
    underline-thickness="50"
    underline-position="-50"
    slope="-12"
    unicode-range="U+0020-FB02"
  />
<missing-glyph horiz-adv-x="230"
 />
    <glyph glyph-name="fi" unicode="fi" horiz-adv-x="624"
d="M50 468l19 88h105l12 56q18 86 64 125t143 39h55l-17 -85h-36q-56 0 -80 -22.5t-34 -67.5l-10 -45h130l-17 -88h-131l-135 -633h-98l135 633h-105zM371 0l118 556h97l-118 -556h-97zM503 623l25 118h97l-24 -118h-98z" />
    <glyph glyph-name="fl" unicode="fl" horiz-adv-x="676"
d="M50 468l19 88h105l12 56q18 86 64 125t143 39h55l-17 -85h-36q-56 0 -80 -22.5t-34 -67.5l-10 -45h130l-17 -88h-131l-135 -633h-98l135 633h-105zM501 -1q-74 0 -94.5 37t-2.5 123l132 617h97l-133 -621q-10 -39 -1 -54t47 -15h24l-18 -85q-20 -2 -51 -2z" />
    <glyph glyph-name="f_f_l" unicode="ffl" horiz-adv-x="991"
d="M335 -165l135 633h-217l-135 -633h-98l135 633h-105l19 88h105l12 56q18 86 64 125t143 39h55l-17 -85h-36q-56 0 -80 -22.5t-34 -67.5l-10 -45h218l12 56q19 86 64.5 125t142.5 39h54l-17 -85h-35q-55 0 -79.5 -22.5t-35.5 -67.5l-10 -45h131l-18 -88h-131l-134 -633
h-98zM816 -1q-75 0 -95 37t-3 123l132 617h97l-133 -621q-9 -39 -0.5 -54t46.5 -15h24l-18 -85q-18 -2 -50 -2z" />
    <glyph glyph-name="f_f_i" unicode="ffi" horiz-adv-x="939"
d="M335 -165l135 633h-217l-135 -633h-98l135 633h-105l19 88h105l12 56q18 86 64 125t143 39h55l-17 -85h-36q-56 0 -80 -22.5t-34 -67.5l-10 -45h218l12 56q19 86 64.5 125t142.5 39h54l-17 -85h-35q-55 0 -79.5 -22.5t-35.5 -67.5l-10 -45h131l-18 -88h-131l-134 -633
h-98zM685 0l118 556h97l-118 -556h-97zM818 623l24 118h98l-25 -118h-97z" />
    <glyph glyph-name="f_j" unicode="fj" horiz-adv-x="624"
d="M50 468l19 88h105l12 56q18 86 64 125t143 39h55l-17 -85h-36q-56 0 -80 -22.5t-34 -67.5l-10 -45h130l-17 -88h-131l-135 -633h-98l135 633h-105zM261 -168l15 80h8q43 0 58.5 16t26.5 66l120 562h97l-122 -573q-19 -92 -52.5 -121.5t-114.5 -29.5h-36zM503 623l25 118
h97l-24 -118h-98z" />
    <glyph glyph-name="f_f" unicode="ff" horiz-adv-x="709"
d="M335 -165l135 633h-217l-135 -633h-98l135 633h-105l19 88h105l12 56q18 86 64 125t143 39h55l-17 -85h-36q-56 0 -80 -22.5t-34 -67.5l-10 -45h218l12 56q19 86 64.5 125t142.5 39h63l-17 -85h-44q-55 0 -79.5 -22.5t-35.5 -67.5l-10 -45h139l-18 -88h-139l-134 -633
h-98z" />
    <glyph glyph-name=".notdef" horiz-adv-x="230"
 />
    <glyph glyph-name=".null" horiz-adv-x="0"
 />
    <glyph glyph-name="nonmarkingreturn" horiz-adv-x="333"
 />
    <glyph glyph-name="space" unicode=" " horiz-adv-x="230"
 />
    <glyph glyph-name="space" unicode="&#xa0;" horiz-adv-x="230"
 />
    <glyph glyph-name="exclam" unicode="!" horiz-adv-x="370"
d="M46 0l26 130h122l-27 -130h-121zM107 212l104 529h107l-124 -529h-87z" />
    <glyph glyph-name="quotedbl" unicode="&#x22;" horiz-adv-x="505"
d="M118 438l56 303h101l-71 -303h-86zM333 438l56 303h102l-72 -303h-86z" />
    <glyph glyph-name="numbersign" unicode="#" horiz-adv-x="737"
d="M122 0l45 209h-136l18 89h136l30 136h-137l19 90h136l46 217h94l-47 -217h144l46 217h94l-46 -217h143l-19 -90h-142l-29 -136h141l-18 -89h-141l-45 -209h-94l45 209h-143l-46 -209h-94zM271 293h157l32 147h-157z" />
    <glyph glyph-name="dollar" unicode="$" horiz-adv-x="650"
d="M185 -94l21 99q-132 16 -211 89l57 69q75 -64 174 -77l58 266q-79 25 -121 62t-42 109q0 107 66.5 162t175.5 57l14 66h89l-14 -71q104 -14 160 -61l-57 -75q-45 36 -125 49l-51 -235q87 -28 132 -65.5t45 -111.5q0 -115 -71 -176t-190 -62l-19 -94h-91zM461 226
q0 39 -24 61t-76 41l-53 -246q72 4 112.5 40.5t40.5 103.5zM218 533q0 -35 21 -56t64 -37l46 214q-131 -6 -131 -121z" />
    <glyph glyph-name="percent" unicode="%" horiz-adv-x="1106"
d="M243 278q-91 0 -135.5 46t-44.5 127q0 132 66 217t170 85q91 0 135.5 -48t44.5 -129q0 -134 -66.5 -216t-169.5 -82zM250 356q65 0 103 62t38 154q0 100 -96 100q-68 0 -105.5 -62.5t-37.5 -154.5q0 -99 98 -99zM809 -11q-93 0 -137 46t-44 127q0 132 66 217t170 85
q91 0 135.5 -48t44.5 -129q0 -134 -67 -216t-168 -82zM814 67q65 0 103 62t38 154q0 101 -96 101q-67 0 -104.5 -62.5t-37.5 -155.5q0 -99 97 -99zM233 0l559 741h92l-559 -741h-92z" />
    <glyph glyph-name="ampersand" unicode="&#x26;" horiz-adv-x="804"
d="M264 -10q-263 0 -263 173q0 58 17 104t49 77.5t66 51.5t79 38q-9 46 -9 91q0 118 52.5 173t135.5 55q80 0 119.5 -36.5t39.5 -101.5q0 -96 -57.5 -148.5t-164.5 -91.5q32 -89 89 -157q33 -39 56 -60q83 84 156 275l79 -27q-75 -198 -165 -295q47 -23 121 -23h22l-18 -88
h-14q-115 0 -189 45q-87 -55 -201 -55zM273 72q67 0 122 28q-27 27 -62 70q-63 76 -99 182q-64 -29 -99.5 -70t-35.5 -109q0 -47 38.5 -74t135.5 -27zM297 531q0 -35 8 -78q75 26 115 61.5t40 90.5q0 62 -72 62q-91 0 -91 -136z" />
    <glyph glyph-name="quotesingle" unicode="'" horiz-adv-x="291"
d="M118 438l56 304h101l-71 -304h-86z" />
    <glyph glyph-name="parenleft" unicode="(" horiz-adv-x="489"
d="M205 -186q-52 57 -88 150.5t-36 208.5q0 99 30.5 198.5t79.5 179.5t106 142t115 99l60 -57q-118 -84 -205 -238t-87 -327q0 -97 31 -180.5t72 -130.5z" />
    <glyph glyph-name="parenright" unicode=")" horiz-adv-x="489"
d="M48 -186l-59 56q118 84 204.5 237.5t86.5 327.5q0 97 -30.5 180.5t-71.5 130.5l78 46q51 -58 87.5 -151.5t36.5 -208.5q0 -192 -103 -365.5t-229 -252.5z" />
    <glyph glyph-name="asterisk" unicode="*" horiz-adv-x="584"
d="M307 256l-76 17l47 178l-174 -64l-25 77l180 48l-144 120l53 60l134 -131l29 184l77 -17l-48 -180l176 66l24 -77l-181 -50l146 -118l-53 -59l-135 129z" />
    <glyph glyph-name="plus" unicode="+" horiz-adv-x="703"
d="M248 107l42 199h-201l20 93h200l43 199h96l-42 -199h200l-20 -93h-199l-42 -199h-97z" />
    <glyph glyph-name="comma" unicode="," horiz-adv-x="253"
d="M-16 -130l-16 51q42 18 57 33.5t22 45.5h-59l26 132h122l-22 -111q-15 -69 -40.5 -97.5t-89.5 -53.5z" />
    <glyph glyph-name="hyphen" unicode="-" horiz-adv-x="445"
d="M27 268l19 91h347l-19 -91h-347z" />
    <glyph glyph-name="hyphen" unicode="&#xad;" horiz-adv-x="445"
d="M27 268l19 91h347l-19 -91h-347z" />
    <glyph glyph-name="period" unicode="." horiz-adv-x="253"
d="M-12 0l26 132h122l-27 -132h-121z" />
    <glyph glyph-name="slash" unicode="/" horiz-adv-x="515"
d="M-80 0l572 741h105l-573 -741h-104z" />
    <glyph glyph-name="zero" unicode="0" horiz-adv-x="721"
d="M313 -11q-137 0 -197.5 61.5t-60.5 179.5q0 74 20 171q38 179 117 265.5t221 86.5q252 0 252 -248q0 -75 -20 -166q-38 -177 -116.5 -263.5t-215.5 -86.5zM319 79q95 0 145.5 67t81.5 207q19 88 19 145q0 78 -36.5 120t-122.5 42q-99 0 -150 -66.5t-81 -205.5
q-19 -89 -19 -152q0 -78 37 -117.5t126 -39.5z" />
    <glyph glyph-name="one" unicode="1" horiz-adv-x="384"
d="M94 0l139 648h-138l20 93h233l-158 -741h-96z" />
    <glyph glyph-name="two" unicode="2" horiz-adv-x="584"
d="M-42 0l17 81l292 238q120 97 144 122q48 50 52 110q1 10 1 21q0 91 -145 91q-97 0 -175 -35l-32 82q97 43 218 43q233 0 233 -161q0 -27 -2 -49.5t-11 -44.5t-14.5 -37t-24.5 -37t-29 -33.5t-39.5 -37t-45 -38t-55.5 -45.5l-229 -184h350l-17 -86h-488z" />
    <glyph glyph-name="three" unicode="3" horiz-adv-x="603"
d="M250 -12q-96 0 -163.5 21t-129.5 63l61 74q107 -71 233 -71q170 0 170 175q0 55 -35 81.5t-121 26.5h-98l18 87h129q81 0 118 29.5t37 104.5q0 43 -34 64.5t-112 21.5q-101 0 -181 -40l-41 78q94 50 238 50q231 0 231 -152q0 -173 -125 -201q72 -32 72 -148
q0 -264 -267 -264z" />
    <glyph glyph-name="four" unicode="4" horiz-adv-x="656"
d="M8 176l16 79l435 486h111l-432 -481h245l70 235h70l-50 -235h126l-17 -84h-127l-37 -176h-91l37 176h-356z" />
    <glyph glyph-name="five" unicode="5" horiz-adv-x="626"
d="M267 -11q-165 0 -276 83l58 74q98 -71 227 -71q82 0 134.5 45t52.5 153q0 130 -162 130q-67 0 -140 -34l-77 25l93 347h432l-19 -88h-341l-53 -191q63 25 139 25q110 0 169.5 -45t59.5 -157q0 -69 -16 -121.5t-42.5 -85t-65.5 -53t-80.5 -28.5t-92.5 -8z" />
    <glyph glyph-name="six" unicode="6" horiz-adv-x="680"
d="M313 -11q-269 0 -269 232q0 50 14 117q49 232 148.5 317.5t322.5 85.5h73l-18 -88h-59q-88 0 -149.5 -14t-99 -44t-58 -64.5t-37.5 -86.5q60 57 200 57q226 0 226 -191q0 -150 -75 -235.5t-219 -85.5zM315 74q101 0 147.5 58.5t46.5 158.5q0 126 -165 126
q-202 0 -202 -203q0 -140 173 -140z" />
    <glyph glyph-name="seven" unicode="7" horiz-adv-x="528"
d="M37 0l425 653h-381l18 88h491l-17 -77l-428 -664h-108z" />
    <glyph glyph-name="eight" unicode="8" horiz-adv-x="687"
d="M296 -14q-141 0 -207 50.5t-66 135.5q0 195 172 237q-70 30 -70 131q0 104 65.5 158.5t195.5 54.5q260 0 260 -164q0 -79 -33.5 -128.5t-97.5 -62.5q82 -33 82 -152q0 -127 -79 -193.5t-222 -66.5zM306 70q87 0 139.5 41t52.5 132q0 118 -178 118q-196 0 -196 -176
q0 -115 182 -115zM380 440q84 0 126 31.5t42 103.5q0 95 -161 95q-84 0 -126 -31.5t-42 -103.5q0 -95 161 -95z" />
    <glyph glyph-name="nine" unicode="9" horiz-adv-x="680"
d="M78 0l17 86h59q88 0 149.5 14t99.5 44.5t59 65t39 87.5q-59 -57 -202 -57q-118 0 -172.5 51.5t-54.5 139.5q0 150 76 236t219 86q268 0 268 -233q0 -55 -13 -116q-34 -158 -87 -243.5t-142.5 -123t-241.5 -37.5h-73zM335 320q203 0 203 203q0 141 -174 141
q-193 0 -193 -217q0 -61 37.5 -94t126.5 -33z" />
    <glyph glyph-name="colon" unicode=":" horiz-adv-x="273"
d="M-2 0l26 128h122l-27 -128h-121zM90 428l25 128h122l-26 -128h-121z" />
    <glyph glyph-name="semicolon" unicode=";" horiz-adv-x="273"
d="M-6 -130l-17 51q42 19 57.5 34t21.5 45h-58l26 128h122l-22 -107q-16 -72 -40.5 -99t-89.5 -52zM90 428l25 128h122l-26 -128h-121z" />
    <glyph glyph-name="less" unicode="&#x3c;" horiz-adv-x="703"
d="M497 83l-402 227l14 72l499 225l-18 -96l-386 -169l312 -166z" />
    <glyph glyph-name="equal" unicode="=" horiz-adv-x="703"
d="M72 195l18 91h487l-19 -91h-486zM119 419l19 90h485l-18 -90h-486z" />
    <glyph glyph-name="greater" unicode="&#x3e;" horiz-adv-x="703"
d="M85 84l19 95l385 170l-312 166l19 93l402 -227l-13 -72z" />
    <glyph glyph-name="question" unicode="?" horiz-adv-x="662"
d="M224 201q19 115 49.5 160t119.5 78q85 31 111.5 54.5t26.5 79.5q0 42 -35.5 65t-126.5 23t-190 -35l-33 85q102 42 239 42q133 0 190.5 -40.5t57.5 -117.5q0 -91 -39.5 -137.5t-141.5 -84.5q-73 -28 -96 -57.5t-37 -114.5h-95zM170 0l24 118h123l-25 -118h-122z" />
    <glyph glyph-name="at" unicode="@" horiz-adv-x="1079"
d="M528 -165q-234 0 -349 112t-115 345t116.5 347.5t337.5 114.5q223 0 340 -114.5t117 -347.5q0 -146 -41.5 -203.5t-142.5 -57.5q-142 0 -158 70q-32 -35 -76.5 -49.5t-115.5 -14.5q-97 0 -141.5 49.5t-44.5 134.5q0 92 24 165t81.5 121.5t142.5 48.5q144 0 183 -66l33 61
l61 -5l-76 -354q-12 -57 11 -81.5t87 -24.5q68 0 91 44t23 162q0 206 -99 305t-299 99q-395 0 -395 -404q0 -202 100.5 -300.5t303.5 -98.5q154 0 273 57l26 -51q-128 -64 -298 -64zM464 116q71 0 113.5 36.5t61.5 130.5q10 40 10 79q0 54 -32 82.5t-106 28.5
q-82 0 -123 -67t-41 -172q0 -57 27 -87.5t90 -30.5z" />
    <glyph glyph-name="A" unicode="A" horiz-adv-x="719"
d="M-57 0l445 746h100l127 -746h-101l-26 156h-344l-92 -156h-109zM196 249h278l-61 367z" />
    <glyph glyph-name="B" unicode="B" horiz-adv-x="700"
d="M5 0l158 741h256q147 0 207 -38.5t60 -113.5q0 -90 -36.5 -142.5t-100.5 -63.5q81 -27 81 -140q0 -135 -70.5 -189t-212.5 -54h-342zM123 91h243q163 0 163 150q0 47 -35.5 70t-115.5 23h-201zM196 428h238q78 0 111.5 34t33.5 102q0 42 -36 63.5t-127 21.5h-172z" />
    <glyph glyph-name="C" unicode="C" horiz-adv-x="714"
d="M352 -11q-163 0 -242.5 76t-79.5 213q0 63 13 129q74 346 404 346q185 0 277 -107l-86 -69q-67 79 -195 79q-243 0 -299 -263q-11 -49 -11 -102q0 -99 56.5 -153t171.5 -54q113 0 192 62l62 -75q-97 -82 -263 -82z" />
    <glyph glyph-name="D" unicode="D" horiz-adv-x="748"
d="M5 0l158 741h176q203 0 291.5 -61.5t88.5 -198.5q0 -72 -18 -150q-22 -104 -58 -171t-90.5 -101.5t-114 -46.5t-147.5 -12h-286zM125 93h168q71 0 118 10.5t85.5 38.5t63 77t40.5 126q16 72 16 122q0 94 -63 136t-215 42h-93z" />
    <glyph glyph-name="E" unicode="E" horiz-adv-x="635"
d="M5 0l158 741h492l-20 -97h-391l-48 -213h381l-19 -96h-380l-53 -242h395l-19 -93h-496z" />
    <glyph glyph-name="F" unicode="F" horiz-adv-x="594"
d="M5 0l158 741h474l-21 -97h-372l-49 -223h363l-19 -96h-363l-70 -325h-101z" />
    <glyph glyph-name="G" unicode="G" horiz-adv-x="768"
d="M360 -11q-167 0 -248.5 74.5t-81.5 213.5q0 69 13 130q71 346 399 346q111 0 182.5 -32t107.5 -78l-86 -70q-71 83 -210 83q-239 0 -294 -263q-10 -47 -10 -103q0 -211 234 -211q119 0 166.5 48.5t73.5 174.5l3 19h-223l19 92h326l-20 -101q-25 -126 -62.5 -193
t-105 -98.5t-183.5 -31.5z" />
    <glyph glyph-name="H" unicode="H" horiz-adv-x="771"
d="M5 0l158 741h101l-66 -306h402l66 306h101l-158 -741h-101l71 335h-401l-72 -335h-101z" />
    <glyph glyph-name="I" unicode="I" horiz-adv-x="284"
d="M13 0l158 741h102l-158 -741h-102z" />
    <glyph glyph-name="J" unicode="J" horiz-adv-x="394"
d="M-50 0l19 93h66q65 0 98.5 27t47.5 93l113 528h101l-116 -543q-24 -114 -82.5 -156.5t-150.5 -42.5q-67 0 -96 1z" />
    <glyph glyph-name="K" unicode="K" horiz-adv-x="699"
d="M480 0l-159 382l-167 -153l-49 -229h-100l158 741h100l-80 -373l399 373h126l-308 -289l186 -452h-106z" />
    <glyph glyph-name="L" unicode="L" horiz-adv-x="575"
d="M5 0l158 741h101l-139 -648h367l-19 -93h-468z" />
    <glyph glyph-name="M" unicode="M" horiz-adv-x="911"
d="M5 0l158 741h131l112 -585l363 585h138l-158 -741h-99l126 586l-366 -586h-75l-113 582l-126 -582h-91z" />
    <glyph glyph-name="N" unicode="N" horiz-adv-x="770"
d="M5 0l158 741h110l273 -571l124 571h96l-158 -741h-92l-287 594l-128 -594h-96z" />
    <glyph glyph-name="O" unicode="O" horiz-adv-x="824"
d="M373 -12q-166 0 -254 77t-88 222q-1 51 13 123q72 343 408 343q166 0 254 -76.5t88 -220.5q0 -62 -14 -122q-75 -346 -407 -346zM374 82q248 0 304 261q12 51 12 99q0 101 -60 157.5t-183 56.5q-247 0 -302 -260q-11 -47 -11 -100q0 -101 59 -157.5t181 -56.5z" />
    <glyph glyph-name="P" unicode="P" horiz-adv-x="700"
d="M5 0l158 741h276q260 0 260 -179q0 -136 -70 -215t-209 -79h-259l-57 -268h-99zM180 361h237q177 0 177 183q0 53 -39.5 78t-127.5 25h-184z" />
    <glyph glyph-name="Q" unicode="Q" horiz-adv-x="824"
d="M373 -7h-13q-14 -54 3 -73t81 -19h66l-18 -87q-14 -1 -64 -1q-121 0 -158 43t-9 147q-230 46 -230 284q-1 51 13 123q72 343 408 343q166 0 254 -76.5t88 -220.5q0 -62 -14 -122q-21 -98 -61.5 -166.5t-96 -105.5t-116 -53t-133.5 -16zM374 82q248 0 304 261q12 51 12 99
q0 101 -60 157.5t-183 56.5q-247 0 -302 -260q-11 -47 -11 -100q0 -101 59 -157.5t181 -56.5z" />
    <glyph glyph-name="R" unicode="R" horiz-adv-x="712"
d="M461 0l-104 285h-192l-61 -285h-99l158 741h263q269 0 269 -178q0 -121 -59 -193.5t-176 -82.5l104 -287h-103zM184 378h236q170 0 170 165q0 104 -172 104h-175z" />
    <glyph glyph-name="S" unicode="S" horiz-adv-x="693"
d="M308 -10q-200 0 -336 101l64 75q115 -87 277 -87q191 0 191 127q0 28 -7.5 46t-36 33.5t-43 21t-69.5 21.5q-16 5 -25 8q-48 14 -72 22.5t-58 25t-50 34.5t-28.5 47t-12.5 67q0 61 22 105.5t61.5 69t86 35.5t102.5 11q181 0 288 -82l-66 -78q-87 67 -226 67
q-164 0 -164 -120q0 -48 37.5 -70.5t123.5 -45.5q51 -14 80.5 -23.5t64.5 -26t52.5 -35t30 -47.5t12.5 -66q0 -64 -23 -111t-65 -73.5t-94 -39t-117 -12.5z" />
    <glyph glyph-name="T" unicode="T" horiz-adv-x="673"
d="M208 0l138 644h-263l20 97h626l-20 -97h-262l-138 -644h-101z" />
    <glyph glyph-name="U" unicode="U" horiz-adv-x="769"
d="M339 -13q-289 0 -289 212q0 43 12 96l96 446h101l-95 -443q-11 -53 -11 -81q0 -66 44.5 -100.5t151.5 -34.5q101 0 151 46t70 144l101 469h98l-106 -489q-13 -60 -33 -103.5t-55.5 -82.5t-95 -59t-140.5 -20z" />
    <glyph glyph-name="V" unicode="V" horiz-adv-x="719"
d="M231 -5l-126 746h102l99 -611l358 611h111l-445 -746h-99z" />
    <glyph glyph-name="W" unicode="W" horiz-adv-x="1063"
d="M177 -5l-66 746h103l49 -565l300 565h96l59 -565l289 565h104l-383 -746h-89l-62 587l-311 -587h-89z" />
    <glyph glyph-name="X" unicode="X" horiz-adv-x="708"
d="M485 0l-145 312l-270 -312h-115l347 394l-160 347h105l128 -277l239 277h115l-316 -359l177 -382h-105z" />
    <glyph glyph-name="Y" unicode="Y" horiz-adv-x="696"
d="M217 0l61 285l-186 456h105l150 -359l300 359h112l-381 -459l-60 -282h-101z" />
    <glyph glyph-name="Z" unicode="Z" horiz-adv-x="652"
d="M-37 0l17 80l545 564h-407l20 97h538l-17 -88l-543 -560h432l-19 -93h-566z" />
    <glyph glyph-name="bracketleft" unicode="[" horiz-adv-x="476"
d="M7 -165l200 941h259l-17 -89h-162l-165 -766h165l-18 -86h-262z" />
    <glyph glyph-name="backslash" unicode="\" horiz-adv-x="515"
d="M340 0l-257 741h93l257 -741h-93z" />
    <glyph glyph-name="bracketright" unicode="]" horiz-adv-x="476"
d="M-18 -165l17 86h163l165 766h-163l18 89h261l-200 -941h-261z" />
    <glyph glyph-name="asciicircum" unicode="^"
d="M147 587l182 164h105l112 -164h-92l-84 101l-128 -101h-95z" />
    <glyph glyph-name="underscore" unicode="_" horiz-adv-x="453"
d="M-142 -132l16 79h527l-16 -79h-527z" />
    <glyph glyph-name="grave" unicode="`"
d="M343 613l-141 164h113l114 -164h-86z" />
    <glyph glyph-name="a" unicode="a" horiz-adv-x="611"
d="M183 -10q-106 0 -149 38.5t-43 110.5q0 128 86 175.5t269 47.5h72q6 27 6 51q0 35 -27.5 50t-100.5 15q-36 0 -79.5 -10.5t-70.5 -24.5l-39 79q80 47 206 47q104 0 152.5 -27t52.5 -80t-13 -132l-39 -182q-10 -39 -3 -51t45 -11l-17 -85q-6 -2 -42 -2t-53.5 12.5
t-19.5 44.5q-57 -66 -193 -66zM208 74q83 0 124 38.5t62 132.5l7 34h-68q-138 0 -191 -25t-53 -105q0 -37 26.5 -56t92.5 -19z" />
    <glyph glyph-name="b" unicode="b" horiz-adv-x="636"
d="M306 -9q-176 0 -205 77l-35 -72l-71 7l165 773h96l-58 -263q56 56 181 56q207 0 207 -201q0 -54 -15 -116q-29 -131 -89 -196t-176 -65zM293 79q78 0 118 43.5t62 138.5q11 59 11 88q0 62 -32 94.5t-106 32.5q-83 0 -126.5 -38.5t-66.5 -144.5q-12 -49 -12 -89
q0 -64 36 -94.5t116 -30.5z" />
    <glyph glyph-name="c" unicode="c" horiz-adv-x="549"
d="M247 -10q-232 0 -232 207q0 51 11 109q27 132 96.5 197.5t197.5 65.5q144 0 211 -90l-82 -65q-14 18 -26 28.5t-41 21.5t-69 11q-79 0 -124.5 -43.5t-65.5 -141.5q-9 -49 -9 -84q0 -129 140 -129q75 0 136 44l55 -65q-83 -66 -198 -66z" />
    <glyph glyph-name="d" unicode="d" horiz-adv-x="636"
d="M220 -9q-207 0 -207 200q0 55 15 117q29 132 88.5 196.5t176.5 64.5q169 0 198 -77l62 284h98l-165 -772l-76 -7l7 53q-56 -59 -197 -59zM253 79q83 0 126.5 38.5t66.5 144.5q11 50 11 89q0 65 -35.5 95.5t-116.5 30.5q-77 0 -117.5 -44t-61.5 -139q-11 -50 -11 -89
q0 -60 31.5 -93t106.5 -33z" />
    <glyph glyph-name="e" unicode="e" horiz-adv-x="580"
d="M245 -11q-232 0 -232 205q0 52 13 112q26 129 95 196t195 67q118 0 165 -44.5t47 -120.5q0 -64 -22 -163h-398q-2 -26 -2 -38q0 -128 150 -128q100 0 168 42l40 -74q-83 -54 -219 -54zM306 481q-73 0 -115.5 -38.5t-64.5 -115.5h302q8 37 8 62q0 45 -28.5 68.5
t-101.5 23.5z" />
    <glyph glyph-name="f" unicode="f" horiz-adv-x="394"
d="M50 468l19 88h105l12 56q18 86 64 125t143 39h63l-17 -85h-44q-56 0 -80 -22.5t-34 -67.5l-10 -45h138l-18 -88h-138l-135 -633h-98l135 633h-105z" />
    <glyph glyph-name="g" unicode="g" horiz-adv-x="596"
d="M279 203q-71 0 -118 15q-15 -16 -15 -42q0 -19 11.5 -27.5t47.5 -8.5q154 -2 219.5 -30.5t65.5 -105.5q0 -105 -71 -144.5t-223 -38.5q-136 0 -199 32.5t-63 104.5q0 65 39 102.5t107 48.5q-22 21 -22 62q0 47 37 82q-40 37 -40 103q0 110 60.5 161.5t184.5 51.5
q30 0 62 -3l216 32l-14 -85h-89q44 -39 44 -110q0 -200 -240 -200zM210 -102q95 -1 136.5 19t41.5 75q0 41 -45.5 54.5t-157.5 13.5q-85 0 -116 -22t-31 -67q0 -73 172 -73zM280 284q142 0 142 118q0 40 -30 59.5t-98 19.5q-71 0 -106.5 -29t-35.5 -92q0 -38 28.5 -57
t99.5 -19z" />
    <glyph glyph-name="h" unicode="h" horiz-adv-x="612"
d="M-7 0l165 776h97l-56 -262q59 55 162 55q61 0 100.5 -13.5t58 -33.5t24 -55.5t2 -66.5t-13.5 -79l-69 -321h-97l67 310q4 21 5.5 29.5t4.5 26.5t2 26t-3 22t-7.5 20.5t-14.5 15.5t-22 13t-31.5 7t-42.5 3q-77 0 -113.5 -40.5t-52.5 -115.5l-67 -317h-98z" />
    <glyph glyph-name="i" unicode="i" horiz-adv-x="252"
d="M-1 0l118 556h97l-118 -556h-97zM131 623l25 118h98l-25 -118h-98z" />
    <glyph glyph-name="j" unicode="j" horiz-adv-x="252"
d="M-112 -168l17 80h8q43 0 58 15.5t26 66.5l120 562h97l-121 -573q-20 -92 -53.5 -121.5t-114.5 -29.5h-37zM131 623l25 118h98l-25 -118h-98z" />
    <glyph glyph-name="k" unicode="k" horiz-adv-x="538"
d="M-5 0l165 776h96l-105 -492l282 272h109l-237 -230l140 -326h-102l-111 254l-110 -106l-31 -148h-96z" />
    <glyph glyph-name="l" unicode="l" horiz-adv-x="305"
d="M130 -1q-75 0 -95 37t-3 123l132 617h97l-132 -621q-10 -39 -1.5 -54t47.5 -15h22l-17 -85q-18 -2 -50 -2z" />
    <glyph glyph-name="m" unicode="m" horiz-adv-x="969"
d="M-7 0l117 551l78 5l-5 -46q63 59 174 59q74 0 114 -15t54 -53q59 68 197 68q60 0 99 -13.5t57 -33t22.5 -56t0.5 -66.5t-14 -79l-68 -321h-98l67 310q17 80 11 108q-14 55 -115 55q-41 0 -69.5 -11.5t-46.5 -34.5t-28 -48t-18 -62l-67 -317h-97l66 310q17 80 11 108
q-14 55 -115 55q-77 0 -111 -40t-51 -116l-67 -317h-98z" />
    <glyph glyph-name="n" unicode="n" horiz-adv-x="612"
d="M-7 0l117 551l78 5l-5 -46q63 59 178 59q61 0 100.5 -13.5t58 -33.5t24 -55.5t2 -66.5t-13.5 -79l-69 -321h-97l66 310q6 30 8.5 44t4 37.5t-5 34.5t-19 24t-37 18t-59.5 5q-77 0 -113.5 -40.5t-52.5 -115.5l-67 -317h-98z" />
    <glyph glyph-name="o" unicode="o" horiz-adv-x="619"
d="M257 -11q-242 0 -242 214q0 45 11 103q30 139 102.5 201t194.5 62q244 0 244 -213q0 -41 -12 -104q-29 -139 -102.5 -201t-195.5 -62zM262 77q81 0 128 44t67 140q9 42 9 81q0 134 -148 134q-83 0 -129 -44.5t-66 -141.5q-9 -42 -9 -82q0 -131 148 -131z" />
    <glyph glyph-name="p" unicode="p" horiz-adv-x="636"
d="M-40 -165l151 716l77 5l-5 -48q57 61 196 61q207 0 207 -201q0 -54 -15 -116q-29 -131 -89 -196t-176 -65q-173 0 -200 76l-50 -232h-96zM293 79q78 0 118 43.5t62 138.5q11 59 11 88q0 62 -32 94.5t-106 32.5q-83 0 -126.5 -38.5t-66.5 -144.5q-12 -49 -12 -89
q0 -64 36 -94.5t116 -30.5z" />
    <glyph glyph-name="q" unicode="q" horiz-adv-x="636"
d="M353 -165l43 206q-54 -50 -176 -50q-207 0 -207 200q0 55 15 117q29 132 88.5 196.5t176.5 64.5q91 0 139 -18.5t66 -58.5l37 71l68 -6l-153 -722h-97zM253 79q83 0 126.5 38.5t66.5 144.5q11 50 11 89q0 65 -35.5 95.5t-116.5 30.5q-77 0 -117.5 -44t-61.5 -139
q-11 -50 -11 -89q0 -60 31.5 -93t106.5 -33z" />
    <glyph glyph-name="r" unicode="r" horiz-adv-x="352"
d="M-5 0l116 551l78 5l-8 -60q51 67 188 67l-20 -96q-91 0 -133.5 -42t-60.5 -125l-64 -300h-96z" />
    <glyph glyph-name="s" unicode="s" horiz-adv-x="516"
d="M216 -10q-153 0 -251 83l63 69q85 -67 197 -67q56 0 86.5 18.5t30.5 69.5q0 32 -30 49t-90 33q-39 11 -60 19t-49.5 24.5t-42 42t-13.5 60.5q0 91 58 134.5t159 43.5q134 0 219 -62l-62 -76q-74 48 -164 48q-110 0 -110 -76q0 -21 18 -37t39 -24t60 -19t62 -20.5
t50.5 -26.5t40.5 -42.5t13 -60.5q0 -183 -224 -183z" />
    <glyph glyph-name="t" unicode="t" horiz-adv-x="407"
d="M50 468l19 88h101l52 158l78 15l-37 -173h135l-17 -88h-137l-64 -303q-13 -37 0 -58t64 -21h54l-17 -86q-12 -1 -69 -1q-97 0 -122 40.5t-8 126.5l66 302h-98z" />
    <glyph glyph-name="u" unicode="u" horiz-adv-x="605"
d="M255 -11q-69 0 -115 13.5t-70.5 35t-33 58t-6 74t13.5 90.5l63 296h98l-64 -305q-10 -50 -12.5 -88t29.5 -61t105 -23q41 0 67 9t41.5 32.5t22.5 44.5t16 63l70 328h95l-71 -334q-14 -67 -29.5 -106.5t-43 -70.5t-69.5 -43.5t-107 -12.5z" />
    <glyph glyph-name="v" unicode="v" horiz-adv-x="542"
d="M141 -5l-93 561h100l66 -439l252 439h106l-330 -561h-101z" />
    <glyph glyph-name="w" unicode="w" horiz-adv-x="868"
d="M120 -5l-67 561h100l48 -408l221 408h100l50 -408l219 408h102l-304 -561h-94l-52 424l-229 -424h-94z" />
    <glyph glyph-name="x" unicode="x" horiz-adv-x="536"
d="M336 0l-103 219l-190 -219h-109l264 295l-122 261h101l90 -194l168 194h108l-240 -270l134 -286h-101z" />
    <glyph glyph-name="y" unicode="y" horiz-adv-x="524"
d="M26 -168q-51 0 -63 1l16 79h43q38 0 53 10t34 44l27 45l-88 545h101l62 -423l240 423h105l-359 -611q-38 -66 -72.5 -89.5t-98.5 -23.5z" />
    <glyph glyph-name="z" unicode="z" horiz-adv-x="492"
d="M-49 0l15 71l381 397h-278l17 88h407l-14 -73l-382 -400h307l-17 -83h-436z" />
    <glyph glyph-name="braceleft" unicode="{" horiz-adv-x="513"
d="M227 -165q-86 0 -125 23.5t-39 71.5q0 35 28 98.5t56 120.5t28 77q0 23 -24.5 30t-94.5 7l17 84q87 0 114 15.5t27 73.5q0 21 -3.5 76t-3.5 82q0 182 190 182h109l-17 -89h-69q-66 0 -91.5 -24.5t-25.5 -82.5q0 -19 3.5 -71.5t3.5 -78.5q0 -52 -17 -82t-61 -43
q44 -16 44 -61q0 -30 -54 -140.5t-54 -139.5q0 -43 82 -43h74l-18 -86h-79z" />
    <glyph glyph-name="bar" unicode="|" horiz-adv-x="338"
d="M119 -165v941h98v-941h-98z" />
    <glyph glyph-name="braceright" unicode="}" horiz-adv-x="513"
d="M-19 -165l17 86h68q65 0 91.5 26t26.5 84q0 19 -3.5 71.5t-3.5 78.5q0 51 17 81.5t60 43.5q-43 16 -43 61q0 30 54 139.5t54 138.5q0 22 -19.5 32t-63.5 10h-73l18 89h79q87 0 126 -23.5t39 -71.5q0 -45 -56.5 -160t-56.5 -135q0 -23 24.5 -30.5t94.5 -7.5l-17 -84
q-87 0 -114.5 -15.5t-27.5 -73.5q0 -21 4 -76t4 -82q0 -182 -190 -182h-109z" />
    <glyph glyph-name="asciitilde" unicode="~"
d="M436 409q-37 0 -83 25.5t-69 25.5q-35 0 -78 -47l-50 50q64 77 132 77q37 0 83 -25t68 -25q31 0 76 50l51 -50q-70 -81 -130 -81z" />
    <glyph glyph-name="exclamdown" unicode="&#xa1;" horiz-adv-x="370"
d="M53 0l123 529h87l-103 -529h-107zM177 611l27 130h121l-26 -130h-122z" />
    <glyph glyph-name="cent" unicode="&#xa2;" horiz-adv-x="546"
d="M160 -94l20 94q-165 32 -165 205q0 155 74 255t212 107l13 61h93l-14 -66q91 -18 138 -82l-77 -64q-32 43 -87 56l-85 -397q64 6 113 44l50 -64q-72 -59 -174 -63l-17 -86h-94zM115 214q0 -106 88 -131l85 392q-82 -11 -127.5 -82t-45.5 -179z" />
    <glyph glyph-name="sterling" unicode="&#xa3;" horiz-adv-x="607"
d="M350 -8q-111 0 -194 51q-59 -46 -189 -43l14 84q90 0 120.5 23.5t40.5 77.5q10 48 4 157h-115l17 83h94v40q0 138 57.5 213.5t177.5 75.5q123 0 215 -52l-54 -81q-70 41 -165 41q-74 0 -105 -53.5t-31 -153.5v-30h202l-16 -83h-183q2 -109 -9 -158q-10 -46 -22 -71
q66 -34 139 -34q51 0 69.5 18.5t28.5 81.5l4 24h86l-8 -38q-19 -100 -57 -136.5t-121 -36.5z" />
    <glyph glyph-name="currency" unicode="&#xa4;" horiz-adv-x="657"
d="M47 412l15 78h103q40 120 116 191.5t185 71.5q125 0 201 -51l-59 -79q-58 38 -144 38q-138 0 -201 -171h244l-15 -78h-252q-10 -54 -13 -77h247l-16 -79h-236v-20q0 -77 35 -118t115 -41q67 0 119 28l44 -75q-75 -42 -174 -42q-234 0 -234 244v24h-113l15 79h103
q5 40 12 77h-97z" />
    <glyph glyph-name="yen" unicode="&#xa5;" horiz-adv-x="620"
d="M42 245l14 79h195l-158 417h102l121 -332l264 332h105l-337 -417h194l-15 -79h-197l-16 -77h195l-15 -79h-196l-19 -89h-97l19 89h-192l15 79h194l16 77h-192z" />
    <glyph glyph-name="brokenbar" unicode="&#xa6;" horiz-adv-x="338"
d="M119 -165v392h98v-392h-98zM119 384v392h98v-392h-98z" />
    <glyph glyph-name="section" unicode="&#xa7;" horiz-adv-x="560"
d="M89 -8q-60 0 -78 2l15 81h54q59 0 80.5 22t32.5 76l11 53q-151 23 -151 130q0 161 202 167l11 47q18 88 60 133t140 45q59 0 79 -2l-17 -84h-53q-59 0 -80.5 -22t-32.5 -73l-11 -49q158 -22 158 -133q0 -39 -11.5 -68t-30.5 -47t-46.5 -29t-56.5 -15.5t-64 -4.5l-11 -50
q-17 -88 -59.5 -133.5t-140.5 -45.5zM293 285q63 0 98.5 19.5t35.5 73.5q0 74 -156 74q-66 0 -101 -18t-35 -74q0 -75 158 -75z" />
    <glyph glyph-name="dieresis" unicode="&#xa8;"
d="M201 613l23 112h89l-23 -112h-89zM404 613l23 112h89l-23 -112h-89z" />
    <glyph glyph-name="copyright" unicode="&#xa9;" horiz-adv-x="826"
d="M423 122q-121 0 -183 64.5t-62 188.5q0 126 66 189t182 63q111 0 177 -63l-46 -49q-53 48 -131 48q-86 0 -132.5 -48t-46.5 -140q0 -93 45.5 -141t133.5 -48q83 0 136 49l44 -45q-66 -68 -183 -68zM417 -12q-181 0 -276.5 105t-95.5 278t95.5 278t276.5 105
q180 0 275.5 -105t95.5 -278t-95.5 -278t-275.5 -105zM417 31q164 0 245.5 92t81.5 248t-81.5 248t-245.5 92q-165 0 -246 -92t-81 -248t81 -248t246 -92z" />
    <glyph glyph-name="ordfeminine" unicode="&#xaa;" horiz-adv-x="576"
d="M220 282q-151 0 -151 115q0 57 19 94t59 56.5t88.5 26.5t121.5 7h58q6 24 6 45q0 28 -22 40t-81 12q-63 0 -123 -29l-31 64q65 40 167 40q85 0 125 -21.5t44 -64.5t-10 -108l-33 -148q-7 -31 -1 -40t36 -9l-15 -71q-4 -1 -32 -1q-40 0 -54 19q-10 13 -10 35
q-53 -62 -161 -62zM244 353q59 0 96.5 31.5t54.5 105.5l6 26h-55q-111 0 -153.5 -19.5t-42.5 -86.5q1 -29 22 -43t72 -14zM57 140l15 74h341l-15 -74h-341z" />
    <glyph glyph-name="guillemotleft" unicode="&#xab;" horiz-adv-x="701"
d="M169 0l-91 277l209 279h86l-203 -279l85 -277h-86zM415 0l-93 277l210 279h87l-204 -279l85 -277h-85z" />
    <glyph glyph-name="logicalnot" unicode="&#xac;" horiz-adv-x="832"
d="M126 120q-90 108 -90 251q0 142 90 250q3 -2 7 -6q-87 -106 -87 -244t88 -244zM228 211q-57 70 -57 160t56 160q1 -1 4 -3.5t4 -3.5q-54 -67 -54 -153q0 -88 54 -153zM264 243q-45 56 -45 128t45 128q2 -1 4 -3.5t4 -3.5q-43 -53 -43 -121t43 -121q-2 -1 -4 -3.5t-4 -3.5
zM316 289q-28 36 -28 82q0 47 28 81l7 -7q-25 -33 -25 -74t26 -75q-2 -1 -4 -3.5t-4 -3.5zM349 320q-16 22 -16 51t16 51q1 -1 4 -3.5t4 -3.5q-14 -20 -14 -44t14 -44q-3 -2 -8 -7zM378 346q-7 12 -7 25t7 25l6 -5q-5 -10 -5 -20t5 -20q-2 -2 -6 -5zM416 60q-116 0 -201 77
l7 7q84 -74 194 -74q111 0 193 74q1 -2 3.5 -4t3.5 -4q-86 -76 -200 -76zM416 324q-15 0 -27 9l6 6q11 -7 21 -7q13 0 21 7q2 -2 5 -6q-10 -9 -26 -9zM482 319q-3 4 -7 7q14 20 14 45t-14 44l7 7q17 -22 17 -51t-17 -52zM292 269q-35 45 -35 102q0 58 36 102l7 -7
q-33 -43 -33 -95t33 -95q-5 -5 -8 -7zM416 -17q-144 0 -252 97l7 8q105 -95 245 -95q139 0 244 94l2 -1l4 -4l1 -2q-107 -97 -251 -97zM416 121q-92 0 -161 61l7 8q65 -59 154 -59t153 59q1 -2 3.5 -4t3.5 -4q-67 -61 -160 -61zM416 170q-72 0 -129 49l7 7q52 -46 122 -46
t121 46q1 -2 3.5 -4t3.5 -4q-54 -48 -128 -48zM416 209q-57 0 -103 38l7 8q43 -36 96 -36t96 36q2 -2 6 -8q-45 -38 -102 -38zM416 265q-37 0 -66 24l7 8q25 -22 59 -22q33 0 58 22q1 -1 3.5 -4t3.5 -4q-29 -24 -65 -24zM358 445l-8 8q29 24 66 24t66 -24l-8 -8
q-25 22 -58 22t-58 -22zM570 552q-65 59 -154 59q-87 0 -153 -58l-7 7q69 61 160 61q92 0 161 -61q-2 -3 -7 -8zM454 346l-6 5q5 10 5 20t-5 20l6 5q7 -12 7 -25t-7 -25zM468 333q-5 5 -8 7q10 15 10 31t-10 31l8 7q12 -17 12 -38t-12 -38zM498 306q-3 2 -8 7q19 25 19 58
t-19 58l7 7q22 -28 22 -65q0 -34 -21 -65zM540 269q-2 1 -4 3.5t-4 3.5q33 43 33 95q0 53 -34 95l8 7q36 -44 36 -102q0 -57 -35 -102zM568 243q-5 5 -8 7q43 53 43 121t-43 121l8 7q45 -56 45 -128t-45 -128zM604 211q-3 2 -8 7q55 66 55 153q0 89 -55 153l8 7
q57 -68 57 -160t-57 -160zM649 171q-1 1 -3.5 3t-3.5 3q69 85 69 194q0 110 -70 193l8 7q72 -86 72 -200t-72 -200zM706 120q-3 3 -8 7q88 106 88 244t-88 244l8 7q90 -108 90 -251q0 -142 -90 -251zM183 170q-72 88 -72 201t71 200q1 -1 3.5 -3t4.5 -4q-69 -83 -69 -193
q0 -111 69 -194zM334 306q-21 29 -21 65t21 65q3 -2 8 -7q-19 -25 -19 -58q0 -32 19 -57zM364 333q-12 17 -12 38t12 38l7 -7q-9 -16 -9 -31t9 -31zM395 403l-5 6q10 9 26 9t26 -9l-5 -6q-11 7 -21 7q-13 0 -21 -7zM384 416l-7 7q17 14 39 14q21 0 38 -14q-4 -4 -6 -7
q-14 12 -32 12q-17 0 -32 -12zM371 430l-7 8q22 19 52 19t52 -19l-7 -8q-19 17 -45 17t-45 -17zM295 516l-7 8q54 48 128 48t128 -49l-2 -1l-2 -4l-2 -2q-52 46 -122 46t-121 -46zM416 240q-48 0 -83 30l7 8q35 -28 76 -28q42 0 75 28l7 -7q-36 -31 -82 -31zM416 285
q-29 0 -53 19l7 8q22 -17 46 -17q25 0 45 17l7 -8q-22 -19 -52 -19zM416 305q-21 0 -40 14l7 7q17 -12 33 -12q17 0 32 12l7 -7q-17 -14 -39 -14zM341 464l-7 7q36 31 82 31q47 0 82 -30l-7 -8q-33 28 -75 28t-75 -28zM320 487l-7 8q44 38 103 38q58 0 102 -39l-6 -7
q-41 36 -96 36q-53 0 -96 -36zM610 597q-81 75 -194 75q-110 0 -194 -74l-7 7q87 77 201 77t201 -77zM172 654l-7 8q107 97 251 97t252 -97l-7 -8q-105 95 -245 95q-139 0 -244 -95zM516 290l-7 7q25 33 25 74t-26 75l8 7q28 -36 28 -82q0 -47 -28 -81z" />
    <glyph glyph-name="registered" unicode="&#xae;" horiz-adv-x="826"
d="M415 -12q-180 0 -275 105t-95 278t95 278t275 105q181 0 276.5 -105t95.5 -278t-95.5 -278t-276.5 -105zM415 31q164 0 246 92t82 248t-82 248t-246 92t-245.5 -92t-81.5 -248t81.5 -248t245.5 -92zM547 128l-110 191h-137v-191h-63v482h213q93 0 130 -35.5t37 -108.5
q0 -62 -26.5 -97.5t-88.5 -45.5l114 -195h-69zM300 376h150q54 0 78.5 19.5t24.5 68.5t-24.5 68t-80.5 19h-148v-175z" />
    <glyph glyph-name="macron" unicode="&#xaf;"
d="M165 613l17 83h363l-16 -83h-364z" />
    <glyph glyph-name="macron" unicode="&#x2c9;"
d="M165 613l17 83h363l-16 -83h-364z" />
    <glyph glyph-name="degree" unicode="&#xb0;" horiz-adv-x="557"
d="M280 275q-100 0 -148.5 51.5t-48.5 133.5q0 127 69.5 210t189.5 83q99 0 147 -52.5t48 -135.5q0 -127 -69.5 -208.5t-187.5 -81.5zM287 352q80 0 124 57t44 147q0 116 -124 116q-79 0 -122.5 -58.5t-43.5 -148.5q0 -113 122 -113z" />
    <glyph glyph-name="plusminus" unicode="&#xb1;" horiz-adv-x="991"
d="M335 -165l135 633h-217l-135 -633h-98l135 633h-105l19 88h105l12 56q18 86 64 125t143 39h55l-17 -85h-36q-56 0 -80 -22.5t-34 -67.5l-10 -45h218l12 56q19 86 64.5 125t142.5 39h54l-17 -85h-35q-55 0 -79.5 -22.5t-35.5 -67.5l-10 -45h131l-18 -88h-131l-134 -633
h-98zM816 -1q-75 0 -95 37t-3 123l132 617h97l-133 -621q-9 -39 -0.5 -54t46.5 -15h24l-18 -85q-18 -2 -50 -2z" />
    <glyph glyph-name="twosuperior" unicode="&#xb2;" horiz-adv-x="470"
d="M56 277l12 59l179 144q84 70 99 89q20 24 20 62q0 46 -83 46q-61 0 -110 -21l-24 64q65 27 140 27q157 0 157 -103q0 -63 -24.5 -97t-111.5 -103l-125 -101h200l-12 -66h-317z" />
    <glyph glyph-name="threesuperior" unicode="&#xb3;" horiz-adv-x="470"
d="M240 270q-111 0 -189 55l43 57q71 -46 145 -46q96 0 96 99q0 31 -19.5 45.5t-70.5 14.5h-67l15 67h84q46 0 66.5 15.5t20.5 56.5q0 47 -82 47q-66 0 -115 -26l-28 60q57 33 156 33q151 0 151 -97q0 -54 -20.5 -82.5t-61.5 -41.5q50 -21 50 -91q0 -85 -46.5 -125.5
t-127.5 -40.5z" />
    <glyph glyph-name="acute" unicode="&#xb4;"
d="M261 613l183 164h122l-211 -164h-94z" />
    <glyph glyph-name="mu" unicode="&#xb5;" horiz-adv-x="609"
d="M-40 -165l152 721h98l-65 -305q-8 -37 -10.5 -56.5t0 -45.5t16 -38.5t42.5 -22t75 -9.5q24 0 43 4t32.5 9t24 17.5t16.5 20.5t12.5 28.5t9 31.5t8.5 38l70 328h95l-71 -334q-27 -130 -76.5 -181.5t-171.5 -51.5q-126 0 -158 59l-46 -213h-96z" />
    <glyph glyph-name="mu" unicode="&#x3bc;" horiz-adv-x="609"
d="M-40 -165l152 721h98l-65 -305q-8 -37 -10.5 -56.5t0 -45.5t16 -38.5t42.5 -22t75 -9.5q24 0 43 4t32.5 9t24 17.5t16.5 20.5t12.5 28.5t9 31.5t8.5 38l70 328h95l-71 -334q-27 -130 -76.5 -181.5t-171.5 -51.5q-126 0 -158 59l-46 -213h-96z" />
    <glyph glyph-name="paragraph" unicode="&#xb6;" horiz-adv-x="624"
d="M170 0l60 284q-158 30 -158 172q0 285 283 285h258l-158 -741h-92l58 276h-100l-59 -276h-92zM337 358h102l63 293h-157q-173 0 -173 -184q0 -55 39.5 -82t125.5 -27z" />
    <glyph glyph-name="periodcentered" unicode="&#xb7;" horiz-adv-x="253"
d="M46 274l27 134h122l-28 -134h-121z" />
    <glyph glyph-name="periodcentered" unicode="&#x2219;" horiz-adv-x="253"
d="M46 274l27 134h122l-28 -134h-121z" />
    <glyph glyph-name="cedilla" unicode="&#xb8;"
d="M199 -232q-84 0 -141 39l37 52q47 -33 102 -33q71 0 71 54q0 43 -85 37l-20 17l29 73h60l-21 -51q105 0 105 -74q0 -114 -137 -114z" />
    <glyph glyph-name="onesuperior" unicode="&#xb9;" horiz-adv-x="345"
d="M132 277l83 393h-87l15 71h168l-98 -464h-81z" />
    <glyph glyph-name="ordmasculine" unicode="&#xba;" horiz-adv-x="577"
d="M298 284q-101 0 -150.5 46.5t-49.5 130.5q1 133 66 212.5t175 79.5q202 0 202 -177q0 -134 -65 -213t-178 -79zM297 359q76 0 118 55.5t42 150.5q0 110 -117 110q-73 0 -115.5 -57t-42.5 -151q0 -108 115 -108zM56 138l15 76h368l-15 -76h-368z" />
    <glyph glyph-name="guillemotright" unicode="&#xbb;" horiz-adv-x="701"
d="M45 0l204 279l-85 277h85l92 -278l-210 -278h-86zM289 0l204 279l-85 277h86l92 -278l-209 -278h-88z" />
    <glyph glyph-name="onequarter" unicode="&#xbc;" horiz-adv-x="913"
d="M439 100l12 61l269 303h86l-268 -300h139l43 132h60l-28 -132h76l-14 -64h-76l-21 -100h-74l20 100h-224zM103 0l571 741h87l-570 -741h-88zM120 277l83 393h-87l14 71h169l-99 -464h-80z" />
    <glyph glyph-name="onehalf" unicode="&#xbd;" horiz-adv-x="981"
d="M120 277l83 393h-87l14 71h169l-99 -464h-80zM103 0l571 741h87l-570 -741h-88zM510 0l11 59l180 144q79 65 98.5 88t19.5 62q0 47 -83 47q-59 0 -110 -21l-24 63q66 29 140 29q157 0 157 -104q0 -44 -13.5 -74.5t-37.5 -54t-83 -71.5l-124 -101h198l-13 -66h-316z" />
    <glyph glyph-name="threequarters" unicode="&#xbe;" horiz-adv-x="1022"
d="M229 274q-111 0 -191 53l43 58q68 -46 146 -46q97 0 97 99q0 31 -19.5 46.5t-71.5 15.5h-66l14 64h83q47 0 68 16t21 57q0 24 -19.5 35t-63.5 11q-66 0 -115 -24l-28 60q58 32 156 32q151 0 151 -97q0 -99 -81 -123q48 -23 48 -92q0 -85 -45.5 -125t-126.5 -40zM548 100
l13 61l269 303h86l-268 -300h139l42 132h60l-28 -132h76l-14 -64h-75l-21 -100h-74l20 100h-225zM213 0l571 741h87l-572 -741h-86z" />
    <glyph glyph-name="questiondown" unicode="&#xbf;" horiz-adv-x="662"
d="M278 -10q-133 0 -191 40.5t-58 118.5q0 90 39.5 136.5t141.5 85.5q73 28 96 57.5t38 113.5h94q-19 -114 -49.5 -159.5t-119.5 -77.5q-85 -31 -111.5 -54.5t-26.5 -79.5q0 -42 36 -65.5t127 -23.5t189 36l33 -86q-102 -42 -238 -42zM346 625l24 118h122l-24 -118h-122z
" />
    <glyph glyph-name="Agrave" unicode="&#xc0;" horiz-adv-x="719"
d="M-57 0l445 746h100l127 -746h-101l-26 156h-344l-92 -156h-109zM196 249h278l-61 367zM441 783l-141 164h113l114 -164h-86z" />
    <glyph glyph-name="Aacute" unicode="&#xc1;" horiz-adv-x="719"
d="M-57 0l445 746h100l127 -746h-101l-26 156h-344l-92 -156h-109zM196 249h278l-61 367zM359 783l183 164h122l-211 -164h-94z" />
    <glyph glyph-name="Acircumflex" unicode="&#xc2;" horiz-adv-x="719"
d="M-57 0l445 746h100l127 -746h-101l-26 156h-344l-92 -156h-109zM196 249h278l-61 367zM245 783l182 164h105l112 -164h-92l-84 101l-128 -101h-95z" />
    <glyph glyph-name="Atilde" unicode="&#xc3;" horiz-adv-x="719"
d="M-57 0l445 746h100l127 -746h-101l-26 156h-344l-92 -156h-109zM196 249h278l-61 367zM534 785q-37 0 -83 25.5t-69 25.5q-35 0 -78 -47l-50 50q64 77 132 77q37 0 83 -25t68 -25q31 0 76 50l51 -50q-70 -81 -130 -81z" />
    <glyph glyph-name="Adieresis" unicode="&#xc4;" horiz-adv-x="719"
d="M-57 0l445 746h100l127 -746h-101l-26 156h-344l-92 -156h-109zM196 249h278l-61 367zM299 783l23 112h89l-23 -112h-89zM502 783l23 112h89l-23 -112h-89z" />
    <glyph glyph-name="Aring" unicode="&#xc5;" horiz-adv-x="719"
d="M-57 0l421 706q-49 27 -49 90q0 70 39.5 113t102.5 43q58 0 87.5 -31t29.5 -78q0 -102 -79 -139l120 -704h-101l-26 156h-344l-92 -156h-109zM196 249h278l-61 367zM436 747q37 0 60 24t23 66q0 26 -15.5 43t-48.5 17q-37 0 -61 -26.5t-24 -67.5q0 -25 16.5 -40.5
t49.5 -15.5z" />
    <glyph glyph-name="AE" unicode="&#xc6;" horiz-adv-x="1071"
d="M-69 0l615 741h544l-20 -97h-386l-47 -215h376l-19 -93h-376l-53 -243h390l-19 -93h-487l34 156h-309l-129 -156h-114zM245 243h256l86 408z" />
    <glyph glyph-name="Ccedilla" unicode="&#xc7;" horiz-adv-x="714"
d="M259 -232q-84 0 -141 39l37 52q47 -33 102 -33q71 0 71 54q0 43 -85 37l-20 17l25 65q-218 44 -218 279q0 63 13 129q74 346 404 346q185 0 277 -107l-86 -69q-67 79 -195 79q-243 0 -299 -263q-11 -49 -11 -102q0 -99 56.5 -153t171.5 -54q113 0 192 62l62 -75
q-97 -82 -263 -82q-17 0 -47 2l-14 -35q105 0 105 -74q0 -114 -137 -114z" />
    <glyph glyph-name="Egrave" unicode="&#xc8;" horiz-adv-x="635"
d="M5 0l158 741h492l-20 -97h-391l-48 -213h381l-19 -96h-380l-53 -242h395l-19 -93h-496zM401 783l-141 164h113l114 -164h-86z" />
    <glyph glyph-name="Eacute" unicode="&#xc9;" horiz-adv-x="635"
d="M319 783l183 164h122l-211 -164h-94zM5 0l158 741h492l-20 -97h-391l-48 -213h381l-19 -96h-380l-53 -242h395l-19 -93h-496z" />
    <glyph glyph-name="Ecircumflex" unicode="&#xca;" horiz-adv-x="635"
d="M205 783l182 164h105l112 -164h-92l-84 101l-128 -101h-95zM5 0l158 741h492l-20 -97h-391l-48 -213h381l-19 -96h-380l-53 -242h395l-19 -93h-496z" />
    <glyph glyph-name="Edieresis" unicode="&#xcb;" horiz-adv-x="635"
d="M259 783l23 112h89l-23 -112h-89zM462 783l23 112h89l-23 -112h-89zM5 0l158 741h492l-20 -97h-391l-48 -213h381l-19 -96h-380l-53 -242h395l-19 -93h-496z" />
    <glyph glyph-name="Igrave" unicode="&#xcc;" horiz-adv-x="284"
d="M187 784l-102 165h113l72 -165h-83zM13 0l158 741h102l-158 -741h-102z" />
    <glyph glyph-name="Iacute" unicode="&#xcd;" horiz-adv-x="284"
d="M183 784l145 165h120l-174 -165h-91zM13 0l158 741h102l-158 -741h-102z" />
    <glyph glyph-name="Icircumflex" unicode="&#xce;" horiz-adv-x="284"
d="M13 0l158 741h102l-158 -741h-102zM31 783l182 164h105l112 -164h-92l-84 101l-128 -101h-95z" />
    <glyph glyph-name="Idieresis" unicode="&#xcf;" horiz-adv-x="284"
d="M13 0l158 741h102l-158 -741h-102zM85 783l23 112h89l-23 -112h-89zM288 783l23 112h89l-23 -112h-89z" />
    <glyph glyph-name="Eth" unicode="&#xd0;" horiz-adv-x="748"
d="M-6 339l18 84h83l68 318h176q203 0 291.5 -61.5t88.5 -198.5q0 -72 -18 -150q-22 -104 -58 -171t-90.5 -101.5t-114 -46.5t-147.5 -12h-286l72 339h-83zM125 93h168q71 0 118 10.5t85.5 38.5t63 77t40.5 126q16 72 16 122q0 94 -63 136t-215 42h-93l-48 -222h159l-18 -84
h-160z" />
    <glyph glyph-name="Ntilde" unicode="&#xd1;" horiz-adv-x="770"
d="M5 0l158 741h110l273 -571l124 571h96l-158 -741h-92l-287 594l-128 -594h-96zM560 785q-37 0 -83 25.5t-69 25.5q-35 0 -78 -47l-50 50q64 77 132 77q37 0 83 -25t68 -25q31 0 76 50l51 -50q-70 -81 -130 -81z" />
    <glyph glyph-name="Ograve" unicode="&#xd2;" horiz-adv-x="824"
d="M373 -12q-166 0 -254 77t-88 222q-1 51 13 123q72 343 408 343q166 0 254 -76.5t88 -220.5q0 -62 -14 -122q-75 -346 -407 -346zM374 82q248 0 304 261q12 51 12 99q0 101 -60 157.5t-183 56.5q-247 0 -302 -260q-11 -47 -11 -100q0 -101 59 -157.5t181 -56.5zM495 783
l-141 164h113l114 -164h-86z" />
    <glyph glyph-name="Oacute" unicode="&#xd3;" horiz-adv-x="824"
d="M411 783l183 164h122l-211 -164h-94zM373 -12q-166 0 -254 77t-88 222q-1 51 13 123q72 343 408 343q166 0 254 -76.5t88 -220.5q0 -62 -14 -122q-75 -346 -407 -346zM374 82q248 0 304 261q12 51 12 99q0 101 -60 157.5t-183 56.5q-247 0 -302 -260q-11 -47 -11 -100
q0 -101 59 -157.5t181 -56.5z" />
    <glyph glyph-name="Ocircumflex" unicode="&#xd4;" horiz-adv-x="824"
d="M297 783l182 164h105l112 -164h-92l-84 101l-128 -101h-95zM373 -12q-166 0 -254 77t-88 222q-1 51 13 123q72 343 408 343q166 0 254 -76.5t88 -220.5q0 -62 -14 -122q-75 -346 -407 -346zM374 82q248 0 304 261q12 51 12 99q0 101 -60 157.5t-183 56.5
q-247 0 -302 -260q-11 -47 -11 -100q0 -101 59 -157.5t181 -56.5z" />
    <glyph glyph-name="Otilde" unicode="&#xd5;" horiz-adv-x="824"
d="M373 -12q-166 0 -254 77t-88 222q-1 51 13 123q72 343 408 343q166 0 254 -76.5t88 -220.5q0 -62 -14 -122q-75 -346 -407 -346zM374 82q248 0 304 261q12 51 12 99q0 101 -60 157.5t-183 56.5q-247 0 -302 -260q-11 -47 -11 -100q0 -101 59 -157.5t181 -56.5zM588 785
q-37 0 -83 25.5t-69 25.5q-35 0 -78 -47l-50 50q64 77 132 77q37 0 83 -25t68 -25q31 0 76 50l51 -50q-70 -81 -130 -81z" />
    <glyph glyph-name="Odieresis" unicode="&#xd6;" horiz-adv-x="824"
d="M353 783l23 112h89l-23 -112h-89zM556 783l23 112h89l-23 -112h-89zM373 -12q-166 0 -254 77t-88 222q-1 51 13 123q72 343 408 343q166 0 254 -76.5t88 -220.5q0 -62 -14 -122q-75 -346 -407 -346zM374 82q248 0 304 261q12 51 12 99q0 101 -60 157.5t-183 56.5
q-247 0 -302 -260q-11 -47 -11 -100q0 -101 59 -157.5t181 -56.5z" />
    <glyph glyph-name="multiply" unicode="&#xd7;" horiz-adv-x="703"
d="M144 135l-46 61l189 156l-122 156l71 61l124 -156l189 156l46 -62l-189 -155l123 -156l-72 -61l-122 156z" />
    <glyph glyph-name="Oslash" unicode="&#xd8;" horiz-adv-x="824"
d="M373 -12q-115 0 -191 36l-49 -65h-99l83 107q-86 78 -86 221q-1 51 13 123q72 343 408 343q102 0 178 -31l47 61h98l-77 -100q96 -78 96 -227q0 -62 -14 -122q-75 -346 -407 -346zM374 79q124 0 201 63t107 201q12 51 12 101q0 104 -62 160l-392 -501q54 -24 134 -24z
M129 294q0 -98 52 -151l389 497q-51 20 -123 20q-250 0 -306 -264q-12 -51 -12 -102z" />
    <glyph glyph-name="Ugrave" unicode="&#xd9;" horiz-adv-x="769"
d="M339 -13q-289 0 -289 212q0 43 12 96l96 446h101l-95 -443q-11 -53 -11 -81q0 -66 44.5 -100.5t151.5 -34.5q101 0 151 46t70 144l101 469h98l-106 -489q-13 -60 -33 -103.5t-55.5 -82.5t-95 -59t-140.5 -20zM467 783l-141 164h113l114 -164h-86z" />
    <glyph glyph-name="Uacute" unicode="&#xda;" horiz-adv-x="769"
d="M385 783l183 164h122l-211 -164h-94zM339 -13q-289 0 -289 212q0 43 12 96l96 446h101l-95 -443q-11 -53 -11 -81q0 -66 44.5 -100.5t151.5 -34.5q101 0 151 46t70 144l101 469h98l-106 -489q-13 -60 -33 -103.5t-55.5 -82.5t-95 -59t-140.5 -20z" />
    <glyph glyph-name="Ucircumflex" unicode="&#xdb;" horiz-adv-x="769"
d="M271 783l182 164h105l112 -164h-92l-84 101l-128 -101h-95zM339 -13q-289 0 -289 212q0 43 12 96l96 446h101l-95 -443q-11 -53 -11 -81q0 -66 44.5 -100.5t151.5 -34.5q101 0 151 46t70 144l101 469h98l-106 -489q-13 -60 -33 -103.5t-55.5 -82.5t-95 -59t-140.5 -20z
" />
    <glyph glyph-name="Udieresis" unicode="&#xdc;" horiz-adv-x="769"
d="M325 783l23 112h89l-23 -112h-89zM528 783l23 112h89l-23 -112h-89zM339 -13q-289 0 -289 212q0 43 12 96l96 446h101l-95 -443q-11 -53 -11 -81q0 -66 44.5 -100.5t151.5 -34.5q101 0 151 46t70 144l101 469h98l-106 -489q-13 -60 -33 -103.5t-55.5 -82.5t-95 -59
t-140.5 -20z" />
    <glyph glyph-name="Yacute" unicode="&#xdd;" horiz-adv-x="696"
d="M217 0l61 285l-186 456h105l150 -359l300 359h112l-381 -459l-60 -282h-101zM348 783l183 164h122l-211 -164h-94z" />
    <glyph glyph-name="Thorn" unicode="&#xde;" horiz-adv-x="700"
d="M5 0l158 741h99l-26 -115h178q261 0 261 -179q0 -136 -70 -213.5t-210 -77.5h-258l-33 -156h-99zM155 246h238q86 0 131.5 45t45.5 136q0 54 -40 80.5t-128 26.5h-184z" />
    <glyph glyph-name="germandbls" unicode="&#xdf;" horiz-adv-x="639"
d="M-40 -165l151 713q24 110 85.5 171.5t176.5 61.5t169 -43t54 -119q0 -87 -37.5 -141.5t-102.5 -72.5q122 -33 122 -157q0 -127 -68.5 -187.5t-214.5 -60.5h-100l18 88h77q194 0 194 157q0 108 -184 108l17 82q180 -2 180 153q0 94 -132 94q-68 0 -106.5 -37t-54.5 -113
l-148 -697h-96z" />
    <glyph glyph-name="agrave" unicode="&#xe0;" horiz-adv-x="611"
d="M183 -10q-106 0 -149 38.5t-43 110.5q0 128 86 175.5t269 47.5h72q6 27 6 51q0 35 -27.5 50t-100.5 15q-36 0 -79.5 -10.5t-70.5 -24.5l-39 79q80 47 206 47q104 0 152.5 -27t52.5 -80t-13 -132l-39 -182q-10 -39 -3 -51t45 -11l-17 -85q-6 -2 -42 -2t-53.5 12.5
t-19.5 44.5q-57 -66 -193 -66zM208 74q83 0 124 38.5t62 132.5l7 34h-68q-138 0 -191 -25t-53 -105q0 -37 26.5 -56t92.5 -19zM354 613l-141 164h113l114 -164h-86z" />
    <glyph glyph-name="aacute" unicode="&#xe1;" horiz-adv-x="611"
d="M183 -10q-106 0 -149 38.5t-43 110.5q0 128 86 175.5t269 47.5h72q6 27 6 51q0 35 -27.5 50t-100.5 15q-36 0 -79.5 -10.5t-70.5 -24.5l-39 79q80 47 206 47q104 0 152.5 -27t52.5 -80t-13 -132l-39 -182q-10 -39 -3 -51t45 -11l-17 -85q-6 -2 -42 -2t-53.5 12.5
t-19.5 44.5q-57 -66 -193 -66zM208 74q83 0 124 38.5t62 132.5l7 34h-68q-138 0 -191 -25t-53 -105q0 -37 26.5 -56t92.5 -19zM272 613l183 164h122l-211 -164h-94z" />
    <glyph glyph-name="acircumflex" unicode="&#xe2;" horiz-adv-x="611"
d="M183 -10q-106 0 -149 38.5t-43 110.5q0 128 86 175.5t269 47.5h72q6 27 6 51q0 35 -27.5 50t-100.5 15q-36 0 -79.5 -10.5t-70.5 -24.5l-39 79q80 47 206 47q104 0 152.5 -27t52.5 -80t-13 -132l-39 -182q-10 -39 -3 -51t45 -11l-17 -85q-6 -2 -42 -2t-53.5 12.5
t-19.5 44.5q-57 -66 -193 -66zM208 74q83 0 124 38.5t62 132.5l7 34h-68q-138 0 -191 -25t-53 -105q0 -37 26.5 -56t92.5 -19zM158 613l182 164h105l112 -164h-92l-84 101l-128 -101h-95z" />
    <glyph glyph-name="atilde" unicode="&#xe3;" horiz-adv-x="611"
d="M183 -10q-106 0 -149 38.5t-43 110.5q0 128 86 175.5t269 47.5h72q6 27 6 51q0 35 -27.5 50t-100.5 15q-36 0 -79.5 -10.5t-70.5 -24.5l-39 79q80 47 206 47q104 0 152.5 -27t52.5 -80t-13 -132l-39 -182q-10 -39 -3 -51t45 -11l-17 -85q-6 -2 -42 -2t-53.5 12.5
t-19.5 44.5q-57 -66 -193 -66zM208 74q83 0 124 38.5t62 132.5l7 34h-68q-138 0 -191 -25t-53 -105q0 -37 26.5 -56t92.5 -19zM447 615q-37 0 -83 25.5t-69 25.5q-35 0 -78 -47l-50 50q64 77 132 77q37 0 83 -25t68 -25q31 0 76 50l51 -50q-70 -81 -130 -81z" />
    <glyph glyph-name="adieresis" unicode="&#xe4;" horiz-adv-x="611"
d="M183 -10q-106 0 -149 38.5t-43 110.5q0 128 86 175.5t269 47.5h72q6 27 6 51q0 35 -27.5 50t-100.5 15q-36 0 -79.5 -10.5t-70.5 -24.5l-39 79q80 47 206 47q104 0 152.5 -27t52.5 -80t-13 -132l-39 -182q-10 -39 -3 -51t45 -11l-17 -85q-6 -2 -42 -2t-53.5 12.5
t-19.5 44.5q-57 -66 -193 -66zM208 74q83 0 124 38.5t62 132.5l7 34h-68q-138 0 -191 -25t-53 -105q0 -37 26.5 -56t92.5 -19zM212 613l23 112h89l-23 -112h-89zM415 613l23 112h89l-23 -112h-89z" />
    <glyph glyph-name="aring" unicode="&#xe5;" horiz-adv-x="611"
d="M183 -10q-106 0 -149 38.5t-43 110.5q0 128 86 175.5t269 47.5h72q6 27 6 51q0 35 -27.5 50t-100.5 15q-36 0 -79.5 -10.5t-70.5 -24.5l-39 79q80 47 206 47q104 0 152.5 -27t52.5 -80t-13 -132l-39 -182q-10 -39 -3 -51t45 -11l-17 -85q-6 -2 -42 -2t-53.5 12.5
t-19.5 44.5q-57 -66 -193 -66zM208 74q83 0 124 38.5t62 132.5l7 34h-68q-138 0 -191 -25t-53 -105q0 -37 26.5 -56t92.5 -19zM371 604q-60 0 -89.5 29t-29.5 75q0 70 39.5 113t102.5 43q58 0 87.5 -31t29.5 -78q0 -70 -39 -110.5t-101 -40.5zM373 659q37 0 60 24t23 66
q0 26 -15.5 43t-48.5 17q-37 0 -61 -26.5t-24 -67.5q0 -25 16.5 -40.5t49.5 -15.5z" />
    <glyph glyph-name="ae" unicode="&#xe6;" horiz-adv-x="952"
d="M619 -11q-160 0 -203 99q-70 -98 -237 -98q-188 0 -188 149q0 126 86 174.5t269 48.5h72q6 27 6 51q0 34 -27.5 49.5t-100.5 15.5q-36 0 -79.5 -10.5t-70.5 -24.5l-39 79q80 47 206 47q156 0 187 -67q69 67 190 67q117 0 164 -44.5t47 -120.5q0 -60 -21 -163h-398
q-2 -26 -2 -38q0 -128 149 -128q101 0 169 42l40 -74q-84 -54 -219 -54zM208 74q84 0 124 38.5t62 132.5l7 34h-68q-56 0 -91 -2t-67.5 -9.5t-49 -22t-26.5 -38.5t-10 -60q0 -38 28 -55.5t91 -17.5zM680 481q-74 0 -116.5 -39t-64.5 -116h303q7 42 7 63q0 45 -28.5 68.5
t-100.5 23.5z" />
    <glyph glyph-name="ccedilla" unicode="&#xe7;" horiz-adv-x="549"
d="M180 -232q-84 0 -141 39l37 52q47 -33 102 -33q71 0 71 54q0 43 -85 37l-20 17l25 63q-154 31 -154 200q0 51 11 109q27 132 96.5 197.5t197.5 65.5q144 0 211 -90l-82 -65q-14 18 -26 28.5t-41 21.5t-69 11q-79 0 -124.5 -43.5t-65.5 -141.5q-9 -49 -9 -84
q0 -129 140 -129q75 0 136 44l55 -65q-83 -66 -198 -66q-14 0 -21 1l-14 -35q105 0 105 -74q0 -114 -137 -114z" />
    <glyph glyph-name="egrave" unicode="&#xe8;" horiz-adv-x="580"
d="M245 -11q-232 0 -232 205q0 52 13 112q26 129 95 196t195 67q118 0 165 -44.5t47 -120.5q0 -64 -22 -163h-398q-2 -26 -2 -38q0 -128 150 -128q100 0 168 42l40 -74q-83 -54 -219 -54zM306 481q-73 0 -115.5 -38.5t-64.5 -115.5h302q8 37 8 62q0 45 -28.5 68.5
t-101.5 23.5zM339 613l-141 164h113l114 -164h-86z" />
    <glyph glyph-name="eacute" unicode="&#xe9;" horiz-adv-x="580"
d="M257 613l183 164h122l-211 -164h-94zM245 -11q-232 0 -232 205q0 52 13 112q26 129 95 196t195 67q118 0 165 -44.5t47 -120.5q0 -64 -22 -163h-398q-2 -26 -2 -38q0 -128 150 -128q100 0 168 42l40 -74q-83 -54 -219 -54zM306 481q-73 0 -115.5 -38.5t-64.5 -115.5h302
q8 37 8 62q0 45 -28.5 68.5t-101.5 23.5z" />
    <glyph glyph-name="ecircumflex" unicode="&#xea;" horiz-adv-x="580"
d="M143 613l182 164h105l112 -164h-92l-84 101l-128 -101h-95zM245 -11q-232 0 -232 205q0 52 13 112q26 129 95 196t195 67q118 0 165 -44.5t47 -120.5q0 -64 -22 -163h-398q-2 -26 -2 -38q0 -128 150 -128q100 0 168 42l40 -74q-83 -54 -219 -54zM306 481
q-73 0 -115.5 -38.5t-64.5 -115.5h302q8 37 8 62q0 45 -28.5 68.5t-101.5 23.5z" />
    <glyph glyph-name="edieresis" unicode="&#xeb;" horiz-adv-x="580"
d="M197 613l23 112h89l-23 -112h-89zM400 613l23 112h89l-23 -112h-89zM245 -11q-232 0 -232 205q0 52 13 112q26 129 95 196t195 67q118 0 165 -44.5t47 -120.5q0 -64 -22 -163h-398q-2 -26 -2 -38q0 -128 150 -128q100 0 168 42l40 -74q-83 -54 -219 -54zM306 481
q-73 0 -115.5 -38.5t-64.5 -115.5h302q8 37 8 62q0 45 -28.5 68.5t-101.5 23.5z" />
    <glyph glyph-name="igrave" unicode="&#xec;" horiz-adv-x="252"
d="M128 613l-96 164h114l67 -164h-85zM-1 0l118 556h97l-118 -556h-97z" />
    <glyph glyph-name="iacute" unicode="&#xed;" horiz-adv-x="252"
d="M128 613l146 164h120l-175 -164h-91zM-1 0l118 556h97l-118 -556h-97z" />
    <glyph glyph-name="icircumflex" unicode="&#xee;" horiz-adv-x="252"
d="M-3 613l162 164h105l92 -164h-92l-64 101l-108 -101h-95zM-1 0l118 556h97l-118 -556h-97z" />
    <glyph glyph-name="idieresis" unicode="&#xef;" horiz-adv-x="252"
d="M45 613l23 112h83l-23 -112h-83zM226 613l23 112h83l-23 -112h-83zM-1 0l118 556h97l-118 -556h-97z" />
    <glyph glyph-name="eth" unicode="&#xf0;" horiz-adv-x="619"
d="M329 584l16 83l70 17q-26 37 -53 67l95 38q36 -39 59 -80l159 39l-15 -84l-111 -27q30 -82 30 -185q0 -101 -25 -210q-33 -139 -102.5 -196t-189.5 -57q-248 0 -248 213q0 52 12 104q27 125 92.5 185t177.5 60q138 0 179 -59q3 61 -22 122zM262 77q81 0 127 41.5
t66 133.5q10 40 10 78q0 130 -148 130q-82 0 -128 -42t-66 -134q-9 -42 -9 -80q0 -127 148 -127z" />
    <glyph glyph-name="ntilde" unicode="&#xf1;" horiz-adv-x="612"
d="M-7 0l117 551l78 5l-5 -46q63 59 178 59q61 0 100.5 -13.5t58 -33.5t24 -55.5t2 -66.5t-13.5 -79l-69 -321h-97l66 310q6 30 8.5 44t4 37.5t-5 34.5t-19 24t-37 18t-59.5 5q-77 0 -113.5 -40.5t-52.5 -115.5l-67 -317h-98zM445 615q-37 0 -83 25.5t-69 25.5
q-35 0 -78 -47l-50 50q64 77 132 77q37 0 83 -25t68 -25q31 0 76 50l51 -50q-70 -81 -130 -81z" />
    <glyph glyph-name="ograve" unicode="&#xf2;" horiz-adv-x="619"
d="M257 -11q-242 0 -242 214q0 45 11 103q30 139 102.5 201t194.5 62q244 0 244 -213q0 -41 -12 -104q-29 -139 -102.5 -201t-195.5 -62zM262 77q81 0 128 44t67 140q9 42 9 81q0 134 -148 134q-83 0 -129 -44.5t-66 -141.5q-9 -42 -9 -82q0 -131 148 -131zM356 613
l-141 164h113l114 -164h-86z" />
    <glyph glyph-name="oacute" unicode="&#xf3;" horiz-adv-x="619"
d="M274 613l183 164h122l-211 -164h-94zM257 -11q-242 0 -242 214q0 45 11 103q30 139 102.5 201t194.5 62q244 0 244 -213q0 -41 -12 -104q-29 -139 -102.5 -201t-195.5 -62zM262 77q81 0 128 44t67 140q9 42 9 81q0 134 -148 134q-83 0 -129 -44.5t-66 -141.5
q-9 -42 -9 -82q0 -131 148 -131z" />
    <glyph glyph-name="ocircumflex" unicode="&#xf4;" horiz-adv-x="619"
d="M160 613l182 164h105l112 -164h-92l-84 101l-128 -101h-95zM257 -11q-242 0 -242 214q0 45 11 103q30 139 102.5 201t194.5 62q244 0 244 -213q0 -41 -12 -104q-29 -139 -102.5 -201t-195.5 -62zM262 77q81 0 128 44t67 140q9 42 9 81q0 134 -148 134q-83 0 -129 -44.5
t-66 -141.5q-9 -42 -9 -82q0 -131 148 -131z" />
    <glyph glyph-name="otilde" unicode="&#xf5;" horiz-adv-x="619"
d="M257 -11q-242 0 -242 214q0 45 11 103q30 139 102.5 201t194.5 62q244 0 244 -213q0 -41 -12 -104q-29 -139 -102.5 -201t-195.5 -62zM262 77q81 0 128 44t67 140q9 42 9 81q0 134 -148 134q-83 0 -129 -44.5t-66 -141.5q-9 -42 -9 -82q0 -131 148 -131zM449 615
q-37 0 -83 25.5t-69 25.5q-35 0 -78 -47l-50 50q64 77 132 77q37 0 83 -25t68 -25q31 0 76 50l51 -50q-70 -81 -130 -81z" />
    <glyph glyph-name="odieresis" unicode="&#xf6;" horiz-adv-x="619"
d="M214 613l23 112h89l-23 -112h-89zM417 613l23 112h89l-23 -112h-89zM257 -11q-242 0 -242 214q0 45 11 103q30 139 102.5 201t194.5 62q244 0 244 -213q0 -41 -12 -104q-29 -139 -102.5 -201t-195.5 -62zM262 77q81 0 128 44t67 140q9 42 9 81q0 134 -148 134
q-83 0 -129 -44.5t-66 -141.5q-9 -42 -9 -82q0 -131 148 -131z" />
    <glyph glyph-name="divide" unicode="&#xf7;" horiz-adv-x="703"
d="M240 100l22 105h110l-23 -105h-109zM89 306l20 93h497l-20 -93h-497zM325 501l22 105h109l-22 -105h-109z" />
    <glyph glyph-name="oslash" unicode="&#xf8;" horiz-adv-x="619"
d="M257 -11q-83 0 -138 25l-46 -56h-85l77 95q-50 53 -50 150q0 45 11 103q30 139 102.5 201t194.5 62q84 0 139 -26l45 57h86l-77 -95q51 -52 51 -149q0 -41 -12 -104q-29 -139 -102.5 -201t-195.5 -62zM261 72q85 0 132 45t68 143q10 43 10 84q0 52 -22 84l-276 -340
q33 -16 88 -16zM109 206q0 -48 19 -80l274 340q-33 15 -83 15q-85 0 -132 -45.5t-68 -144.5q-10 -50 -10 -85z" />
    <glyph glyph-name="ugrave" unicode="&#xf9;" horiz-adv-x="605"
d="M255 -11q-69 0 -115 13.5t-70.5 35t-33 58t-6 74t13.5 90.5l63 296h98l-64 -305q-10 -50 -12.5 -88t29.5 -61t105 -23q41 0 67 9t41.5 32.5t22.5 44.5t16 63l70 328h95l-71 -334q-14 -67 -29.5 -106.5t-43 -70.5t-69.5 -43.5t-107 -12.5zM349 613l-141 164h113l114 -164
h-86z" />
    <glyph glyph-name="uacute" unicode="&#xfa;" horiz-adv-x="605"
d="M267 613l183 164h122l-211 -164h-94zM255 -11q-69 0 -115 13.5t-70.5 35t-33 58t-6 74t13.5 90.5l63 296h98l-64 -305q-10 -50 -12.5 -88t29.5 -61t105 -23q41 0 67 9t41.5 32.5t22.5 44.5t16 63l70 328h95l-71 -334q-14 -67 -29.5 -106.5t-43 -70.5t-69.5 -43.5
t-107 -12.5z" />
    <glyph glyph-name="ucircumflex" unicode="&#xfb;" horiz-adv-x="605"
d="M153 613l182 164h105l112 -164h-92l-84 101l-128 -101h-95zM255 -11q-69 0 -115 13.5t-70.5 35t-33 58t-6 74t13.5 90.5l63 296h98l-64 -305q-10 -50 -12.5 -88t29.5 -61t105 -23q41 0 67 9t41.5 32.5t22.5 44.5t16 63l70 328h95l-71 -334q-14 -67 -29.5 -106.5
t-43 -70.5t-69.5 -43.5t-107 -12.5z" />
    <glyph glyph-name="udieresis" unicode="&#xfc;" horiz-adv-x="605"
d="M207 613l23 112h89l-23 -112h-89zM410 613l23 112h89l-23 -112h-89zM255 -11q-69 0 -115 13.5t-70.5 35t-33 58t-6 74t13.5 90.5l63 296h98l-64 -305q-10 -50 -12.5 -88t29.5 -61t105 -23q41 0 67 9t41.5 32.5t22.5 44.5t16 63l70 328h95l-71 -334q-14 -67 -29.5 -106.5
t-43 -70.5t-69.5 -43.5t-107 -12.5z" />
    <glyph glyph-name="yacute" unicode="&#xfd;" horiz-adv-x="524"
d="M26 -168q-51 0 -63 1l16 79h43q38 0 53 10t34 44l27 45l-88 545h101l62 -423l240 423h105l-359 -611q-38 -66 -72.5 -89.5t-98.5 -23.5zM230 613l183 164h122l-211 -164h-94z" />
    <glyph glyph-name="thorn" unicode="&#xfe;" horiz-adv-x="636"
d="M-40 -165l200 941h96l-57 -263q50 56 180 56q207 0 207 -201q0 -54 -15 -116q-29 -131 -89 -196t-176 -65q-174 0 -201 76l-49 -232h-96zM293 79q78 0 118 43.5t62 138.5q11 59 11 88q0 62 -32 94.5t-106 32.5q-83 0 -126.5 -38.5t-66.5 -144.5q-12 -49 -12 -89
q0 -64 36 -94.5t116 -30.5z" />
    <glyph glyph-name="ydieresis" unicode="&#xff;" horiz-adv-x="524"
d="M26 -168q-51 0 -63 1l16 79h43q38 0 53 10t34 44l27 45l-88 545h101l62 -423l240 423h105l-359 -611q-38 -66 -72.5 -89.5t-98.5 -23.5zM170 613l23 112h89l-23 -112h-89zM373 613l23 112h89l-23 -112h-89z" />
    <glyph glyph-name="dotlessi" unicode="&#x131;" horiz-adv-x="252"
d="M-1 0l118 556h97l-118 -556h-97z" />
    <glyph glyph-name="Lslash" unicode="&#x141;" horiz-adv-x="583"
d="M-15 290l18 89l92 46l68 316h101l-56 -260l180 90l-19 -89l-180 -90l-64 -299h374l-18 -93h-476l71 336z" />
    <glyph glyph-name="lslash" unicode="&#x142;" horiz-adv-x="367"
d="M23 371l18 84l108 56l57 265h98l-45 -209l119 62l-18 -85l-119 -61l-71 -331q-10 -40 -1 -55t48 -15h23l-18 -81q-18 -2 -50 -2q-74 0 -95 37t-3 120l57 271z" />
    <glyph glyph-name="OE" unicode="&#x152;" horiz-adv-x="1235"
d="M373 -12q-166 0 -254 77t-88 222q-1 51 13 123q72 343 408 343q224 0 296 -143l28 131h477l-21 -97h-385l-46 -215h375l-19 -93h-376l-53 -243h390l-19 -93h-481l20 94q-98 -106 -265 -106zM374 82q248 0 304 261q12 51 12 99q0 101 -60 157.5t-183 56.5
q-247 0 -302 -260q-11 -47 -11 -100q0 -101 59 -157.5t181 -56.5z" />
    <glyph glyph-name="oe" unicode="&#x153;" horiz-adv-x="1017"
d="M683 -11q-160 0 -203 99q-71 -99 -224 -99q-242 0 -242 214q0 40 12 103q30 139 102.5 201t194.5 62q164 0 212 -102q71 102 219 102q118 0 164.5 -44t46.5 -121q0 -60 -21 -163h-398q-2 -26 -2 -38q0 -128 149 -128q101 0 169 42l39 -74q-83 -54 -218 -54zM261 77
q82 0 128.5 44t66.5 140q10 40 10 81q0 134 -148 134q-83 0 -129 -44.5t-66 -141.5q-10 -40 -10 -82q0 -131 148 -131zM744 481q-74 0 -117 -39t-64 -116h303q7 40 7 63q0 45 -28.5 68.5t-100.5 23.5z" />
    <glyph glyph-name="Scaron" unicode="&#x160;" horiz-adv-x="693"
d="M380 783l-112 164h91l85 -101l127 101h96l-181 -164h-106zM308 -10q-200 0 -336 101l64 75q115 -87 277 -87q191 0 191 127q0 28 -7.5 46t-36 33.5t-43 21t-69.5 21.5q-16 5 -25 8q-48 14 -72 22.5t-58 25t-50 34.5t-28.5 47t-12.5 67q0 61 22 105.5t61.5 69t86 35.5
t102.5 11q181 0 288 -82l-66 -78q-87 67 -226 67q-164 0 -164 -120q0 -48 37.5 -70.5t123.5 -45.5q51 -14 80.5 -23.5t64.5 -26t52.5 -35t30 -47.5t12.5 -66q0 -64 -23 -111t-65 -73.5t-94 -39t-117 -12.5z" />
    <glyph glyph-name="scaron" unicode="&#x161;" horiz-adv-x="516"
d="M257 613l-112 164h91l85 -101l127 101h96l-181 -164h-106zM216 -10q-153 0 -251 83l63 69q85 -67 197 -67q56 0 86.5 18.5t30.5 69.5q0 32 -30 49t-90 33q-39 11 -60 19t-49.5 24.5t-42 42t-13.5 60.5q0 91 58 134.5t159 43.5q134 0 219 -62l-62 -76q-74 48 -164 48
q-110 0 -110 -76q0 -21 18 -37t39 -24t60 -19t62 -20.5t50.5 -26.5t40.5 -42.5t13 -60.5q0 -183 -224 -183z" />
    <glyph glyph-name="Ydieresis" unicode="&#x178;" horiz-adv-x="696"
d="M217 0l61 285l-186 456h105l150 -359l300 359h112l-381 -459l-60 -282h-101zM288 783l23 112h89l-23 -112h-89zM491 783l23 112h89l-23 -112h-89z" />
    <glyph glyph-name="Zcaron" unicode="&#x17d;" horiz-adv-x="652"
d="M360 783l-112 164h91l85 -101l127 101h96l-181 -164h-106zM-37 0l17 80l545 564h-407l20 97h538l-17 -88l-543 -560h432l-19 -93h-566z" />
    <glyph glyph-name="zcaron" unicode="&#x17e;" horiz-adv-x="492"
d="M247 613l-112 164h91l85 -101l127 101h96l-181 -164h-106zM-49 0l15 71l381 397h-278l17 88h407l-14 -73l-382 -400h307l-17 -83h-436z" />
    <glyph glyph-name="florin" unicode="&#x192;" horiz-adv-x="553"
d="M95 366l20 88h114l27 125q8 41 17.5 65.5t29.5 49t56.5 36t90.5 11.5h60l-19 -92h-35q-57 0 -77.5 -24t-30.5 -75l-21 -96h159l-19 -88h-159l-113 -532h-97l113 532h-116z" />
    <glyph glyph-name="circumflex" unicode="&#x2c6;"
d="M147 613l182 164h105l112 -164h-92l-84 101l-128 -101h-95z" />
    <glyph glyph-name="caron" unicode="&#x2c7;"
d="M294 613l-112 164h91l85 -101l127 101h96l-181 -164h-106z" />
    <glyph glyph-name="breve" unicode="&#x2d8;"
d="M360 604q-52 0 -87 13t-52.5 37.5t-24 52t-6.5 65.5l76 10q0 -51 19 -74t78 -23q58 0 87 23.5t48 73.5l71 -14q-54 -164 -209 -164z" />
    <glyph glyph-name="dotaccent" unicode="&#x2d9;"
d="M297 613l25 117h98l-24 -117h-99z" />
    <glyph glyph-name="ring" unicode="&#x2da;"
d="M360 604q-60 0 -89.5 29t-29.5 75q0 70 39.5 113t102.5 43q58 0 87.5 -31t29.5 -78q0 -70 -39 -110.5t-101 -40.5zM362 659q37 0 60 24t23 66q0 26 -15.5 43t-48.5 17q-37 0 -61 -26.5t-24 -67.5q0 -25 16.5 -40.5t49.5 -15.5z" />
    <glyph glyph-name="ogonek" unicode="&#x2db;"
d="M199 -226q-73 0 -101.5 20t-28.5 56q0 96 135 157h68q-129 -70 -129 -133q0 -40 74 -40q36 0 78 15l10 -51q-45 -24 -106 -24z" />
    <glyph glyph-name="tilde" unicode="&#x2dc;"
d="M436 615q-37 0 -83 25.5t-69 25.5q-35 0 -78 -47l-50 50q64 77 132 77q37 0 83 -25t68 -25q31 0 76 50l51 -50q-70 -81 -130 -81z" />
    <glyph glyph-name="hungarumlaut" unicode="&#x2dd;"
d="M129 613l161 164h115l-190 -164h-86zM368 613l161 164h114l-190 -164h-85z" />
    <glyph glyph-name="Delta" unicode="&#x394;" horiz-adv-x="624"
d="M50 468l19 88h105l12 56q18 86 64 125t143 39h55l-17 -85h-36q-56 0 -80 -22.5t-34 -67.5l-10 -45h130l-17 -88h-131l-135 -633h-98l135 633h-105zM261 -168l15 80h8q43 0 58.5 16t26.5 66l120 562h97l-122 -573q-19 -92 -52.5 -121.5t-114.5 -29.5h-36zM503 623l25 118
h97l-24 -118h-98z" />
    <glyph glyph-name="Delta" unicode="&#x2206;" horiz-adv-x="624"
d="M50 468l19 88h105l12 56q18 86 64 125t143 39h55l-17 -85h-36q-56 0 -80 -22.5t-34 -67.5l-10 -45h130l-17 -88h-131l-135 -633h-98l135 633h-105zM261 -168l15 80h8q43 0 58.5 16t26.5 66l120 562h97l-122 -573q-19 -92 -52.5 -121.5t-114.5 -29.5h-36zM503 623l25 118
h97l-24 -118h-98z" />
    <glyph glyph-name="Omega" unicode="&#x3a9;" horiz-adv-x="832"
d="M126 120q-90 108 -90 251q0 142 90 250q3 -2 7 -6q-87 -106 -87 -244t88 -244zM228 211q-57 70 -57 160t56 160q1 -1 4 -3.5t4 -3.5q-54 -67 -54 -153q0 -88 54 -153zM264 243q-45 56 -45 128t45 128q2 -1 4 -3.5t4 -3.5q-43 -53 -43 -121t43 -121q-2 -1 -4 -3.5t-4 -3.5
zM316 289q-28 36 -28 82q0 47 28 81l7 -7q-25 -33 -25 -74t26 -75q-2 -1 -4 -3.5t-4 -3.5zM349 320q-16 22 -16 51t16 51q1 -1 4 -3.5t4 -3.5q-14 -20 -14 -44t14 -44q-3 -2 -8 -7zM378 346q-7 12 -7 25t7 25l6 -5q-5 -10 -5 -20t5 -20q-2 -2 -6 -5zM416 60q-116 0 -201 77
l7 7q84 -74 194 -74q111 0 193 74q1 -2 3.5 -4t3.5 -4q-86 -76 -200 -76zM416 324q-15 0 -27 9l6 6q11 -7 21 -7q13 0 21 7q2 -2 5 -6q-10 -9 -26 -9zM482 319q-3 4 -7 7q14 20 14 45t-14 44l7 7q17 -22 17 -51t-17 -52zM292 269q-35 45 -35 102q0 58 36 102l7 -7
q-33 -43 -33 -95t33 -95q-5 -5 -8 -7zM416 -17q-144 0 -252 97l7 8q105 -95 245 -95q139 0 244 94l2 -1l4 -4l1 -2q-107 -97 -251 -97zM416 121q-92 0 -161 61l7 8q65 -59 154 -59t153 59q1 -2 3.5 -4t3.5 -4q-67 -61 -160 -61zM416 170q-72 0 -129 49l7 7q52 -46 122 -46
t121 46q1 -2 3.5 -4t3.5 -4q-54 -48 -128 -48zM416 209q-57 0 -103 38l7 8q43 -36 96 -36t96 36q2 -2 6 -8q-45 -38 -102 -38zM416 265q-37 0 -66 24l7 8q25 -22 59 -22q33 0 58 22q1 -1 3.5 -4t3.5 -4q-29 -24 -65 -24zM358 445l-8 8q29 24 66 24t66 -24l-8 -8
q-25 22 -58 22t-58 -22zM570 552q-65 59 -154 59q-87 0 -153 -58l-7 7q69 61 160 61q92 0 161 -61q-2 -3 -7 -8zM454 346l-6 5q5 10 5 20t-5 20l6 5q7 -12 7 -25t-7 -25zM468 333q-5 5 -8 7q10 15 10 31t-10 31l8 7q12 -17 12 -38t-12 -38zM498 306q-3 2 -8 7q19 25 19 58
t-19 58l7 7q22 -28 22 -65q0 -34 -21 -65zM540 269q-2 1 -4 3.5t-4 3.5q33 43 33 95q0 53 -34 95l8 7q36 -44 36 -102q0 -57 -35 -102zM568 243q-5 5 -8 7q43 53 43 121t-43 121l8 7q45 -56 45 -128t-45 -128zM604 211q-3 2 -8 7q55 66 55 153q0 89 -55 153l8 7
q57 -68 57 -160t-57 -160zM649 171q-1 1 -3.5 3t-3.5 3q69 85 69 194q0 110 -70 193l8 7q72 -86 72 -200t-72 -200zM706 120q-3 3 -8 7q88 106 88 244t-88 244l8 7q90 -108 90 -251q0 -142 -90 -251zM183 170q-72 88 -72 201t71 200q1 -1 3.5 -3t4.5 -4q-69 -83 -69 -193
q0 -111 69 -194zM334 306q-21 29 -21 65t21 65q3 -2 8 -7q-19 -25 -19 -58q0 -32 19 -57zM364 333q-12 17 -12 38t12 38l7 -7q-9 -16 -9 -31t9 -31zM395 403l-5 6q10 9 26 9t26 -9l-5 -6q-11 7 -21 7q-13 0 -21 -7zM384 416l-7 7q17 14 39 14q21 0 38 -14q-4 -4 -6 -7
q-14 12 -32 12q-17 0 -32 -12zM371 430l-7 8q22 19 52 19t52 -19l-7 -8q-19 17 -45 17t-45 -17zM295 516l-7 8q54 48 128 48t128 -49l-2 -1l-2 -4l-2 -2q-52 46 -122 46t-121 -46zM416 240q-48 0 -83 30l7 8q35 -28 76 -28q42 0 75 28l7 -7q-36 -31 -82 -31zM416 285
q-29 0 -53 19l7 8q22 -17 46 -17q25 0 45 17l7 -8q-22 -19 -52 -19zM416 305q-21 0 -40 14l7 7q17 -12 33 -12q17 0 32 12l7 -7q-17 -14 -39 -14zM341 464l-7 7q36 31 82 31q47 0 82 -30l-7 -8q-33 28 -75 28t-75 -28zM320 487l-7 8q44 38 103 38q58 0 102 -39l-6 -7
q-41 36 -96 36q-53 0 -96 -36zM610 597q-81 75 -194 75q-110 0 -194 -74l-7 7q87 77 201 77t201 -77zM172 654l-7 8q107 97 251 97t252 -97l-7 -8q-105 95 -245 95q-139 0 -244 -95zM516 290l-7 7q25 33 25 74t-26 75l8 7q28 -36 28 -82q0 -47 -28 -81z" />
    <glyph glyph-name="Omega" unicode="&#x2126;" horiz-adv-x="832"
d="M126 120q-90 108 -90 251q0 142 90 250q3 -2 7 -6q-87 -106 -87 -244t88 -244zM228 211q-57 70 -57 160t56 160q1 -1 4 -3.5t4 -3.5q-54 -67 -54 -153q0 -88 54 -153zM264 243q-45 56 -45 128t45 128q2 -1 4 -3.5t4 -3.5q-43 -53 -43 -121t43 -121q-2 -1 -4 -3.5t-4 -3.5
zM316 289q-28 36 -28 82q0 47 28 81l7 -7q-25 -33 -25 -74t26 -75q-2 -1 -4 -3.5t-4 -3.5zM349 320q-16 22 -16 51t16 51q1 -1 4 -3.5t4 -3.5q-14 -20 -14 -44t14 -44q-3 -2 -8 -7zM378 346q-7 12 -7 25t7 25l6 -5q-5 -10 -5 -20t5 -20q-2 -2 -6 -5zM416 60q-116 0 -201 77
l7 7q84 -74 194 -74q111 0 193 74q1 -2 3.5 -4t3.5 -4q-86 -76 -200 -76zM416 324q-15 0 -27 9l6 6q11 -7 21 -7q13 0 21 7q2 -2 5 -6q-10 -9 -26 -9zM482 319q-3 4 -7 7q14 20 14 45t-14 44l7 7q17 -22 17 -51t-17 -52zM292 269q-35 45 -35 102q0 58 36 102l7 -7
q-33 -43 -33 -95t33 -95q-5 -5 -8 -7zM416 -17q-144 0 -252 97l7 8q105 -95 245 -95q139 0 244 94l2 -1l4 -4l1 -2q-107 -97 -251 -97zM416 121q-92 0 -161 61l7 8q65 -59 154 -59t153 59q1 -2 3.5 -4t3.5 -4q-67 -61 -160 -61zM416 170q-72 0 -129 49l7 7q52 -46 122 -46
t121 46q1 -2 3.5 -4t3.5 -4q-54 -48 -128 -48zM416 209q-57 0 -103 38l7 8q43 -36 96 -36t96 36q2 -2 6 -8q-45 -38 -102 -38zM416 265q-37 0 -66 24l7 8q25 -22 59 -22q33 0 58 22q1 -1 3.5 -4t3.5 -4q-29 -24 -65 -24zM358 445l-8 8q29 24 66 24t66 -24l-8 -8
q-25 22 -58 22t-58 -22zM570 552q-65 59 -154 59q-87 0 -153 -58l-7 7q69 61 160 61q92 0 161 -61q-2 -3 -7 -8zM454 346l-6 5q5 10 5 20t-5 20l6 5q7 -12 7 -25t-7 -25zM468 333q-5 5 -8 7q10 15 10 31t-10 31l8 7q12 -17 12 -38t-12 -38zM498 306q-3 2 -8 7q19 25 19 58
t-19 58l7 7q22 -28 22 -65q0 -34 -21 -65zM540 269q-2 1 -4 3.5t-4 3.5q33 43 33 95q0 53 -34 95l8 7q36 -44 36 -102q0 -57 -35 -102zM568 243q-5 5 -8 7q43 53 43 121t-43 121l8 7q45 -56 45 -128t-45 -128zM604 211q-3 2 -8 7q55 66 55 153q0 89 -55 153l8 7
q57 -68 57 -160t-57 -160zM649 171q-1 1 -3.5 3t-3.5 3q69 85 69 194q0 110 -70 193l8 7q72 -86 72 -200t-72 -200zM706 120q-3 3 -8 7q88 106 88 244t-88 244l8 7q90 -108 90 -251q0 -142 -90 -251zM183 170q-72 88 -72 201t71 200q1 -1 3.5 -3t4.5 -4q-69 -83 -69 -193
q0 -111 69 -194zM334 306q-21 29 -21 65t21 65q3 -2 8 -7q-19 -25 -19 -58q0 -32 19 -57zM364 333q-12 17 -12 38t12 38l7 -7q-9 -16 -9 -31t9 -31zM395 403l-5 6q10 9 26 9t26 -9l-5 -6q-11 7 -21 7q-13 0 -21 -7zM384 416l-7 7q17 14 39 14q21 0 38 -14q-4 -4 -6 -7
q-14 12 -32 12q-17 0 -32 -12zM371 430l-7 8q22 19 52 19t52 -19l-7 -8q-19 17 -45 17t-45 -17zM295 516l-7 8q54 48 128 48t128 -49l-2 -1l-2 -4l-2 -2q-52 46 -122 46t-121 -46zM416 240q-48 0 -83 30l7 8q35 -28 76 -28q42 0 75 28l7 -7q-36 -31 -82 -31zM416 285
q-29 0 -53 19l7 8q22 -17 46 -17q25 0 45 17l7 -8q-22 -19 -52 -19zM416 305q-21 0 -40 14l7 7q17 -12 33 -12q17 0 32 12l7 -7q-17 -14 -39 -14zM341 464l-7 7q36 31 82 31q47 0 82 -30l-7 -8q-33 28 -75 28t-75 -28zM320 487l-7 8q44 38 103 38q58 0 102 -39l-6 -7
q-41 36 -96 36q-53 0 -96 -36zM610 597q-81 75 -194 75q-110 0 -194 -74l-7 7q87 77 201 77t201 -77zM172 654l-7 8q107 97 251 97t252 -97l-7 -8q-105 95 -245 95q-139 0 -244 -95zM516 290l-7 7q25 33 25 74t-26 75l8 7q28 -36 28 -82q0 -47 -28 -81z" />
    <glyph glyph-name="pi" unicode="&#x3c0;" horiz-adv-x="826"
d="M417 -12q-181 0 -276.5 105t-95.5 278t95.5 278t276.5 105q180 0 275.5 -105t95.5 -278t-95.5 -278t-275.5 -105zM417 31q164 0 245.5 92t81.5 248t-81.5 248t-245.5 92q-165 0 -246 -92t-81 -248t81 -248t246 -92zM246 115v498h222q97 0 135.5 -36.5t38.5 -116.5
q0 -81 -39 -120.5t-136 -39.5h-155v-185h-66zM312 361h157q56 0 80.5 21.5t24.5 74.5q0 52 -24.5 73t-82.5 21h-155v-190z" />
    <glyph glyph-name="endash" unicode="&#x2013;" horiz-adv-x="693"
d="M27 268l19 91h596l-19 -91h-596z" />
    <glyph glyph-name="emdash" unicode="&#x2014;" horiz-adv-x="912"
d="M27 268l19 91h815l-18 -91h-816z" />
    <glyph glyph-name="quoteleft" unicode="&#x2018;" horiz-adv-x="253"
d="M89 473l21 100q15 74 39.5 107.5t90.5 63.5l21 -52q-43 -20 -59 -36.5t-23 -48.5h60l-28 -134h-122z" />
    <glyph glyph-name="quoteright" unicode="&#x2019;" horiz-adv-x="253"
d="M116 470l-20 52q43 19 58.5 35.5t22.5 48.5h-60l29 135h121l-21 -99q-15 -76 -39 -109.5t-91 -62.5z" />
    <glyph glyph-name="quotesinglbase" unicode="&#x201a;" horiz-adv-x="253"
d="M-11 -123l-19 51q42 20 57.5 36.5t22.5 49.5h-60l28 133h122l-21 -100q-15 -72 -40 -107t-90 -63z" />
    <glyph glyph-name="quotedblleft" unicode="&#x201c;" horiz-adv-x="448"
d="M90 476l20 97q16 74 40 107t88 61l19 -51q-42 -20 -57 -36t-22 -47h58l-26 -131h-120zM287 476l21 97q16 74 39.5 107t87.5 61l20 -51q-41 -20 -57 -36t-23 -47h59l-27 -131h-120z" />
    <glyph glyph-name="quotedblright" unicode="&#x201d;" horiz-adv-x="448"
d="M116 476l-19 50q42 20 57.5 36t22.5 48h-59l28 131h119l-21 -98q-15 -73 -39 -106t-89 -61zM314 476l-20 50q42 20 57.5 36t22.5 48h-59l28 131h118l-19 -98q-15 -73 -39 -106t-89 -61z" />
    <glyph glyph-name="quotedblbase" unicode="&#x201e;" horiz-adv-x="448"
d="M-11 -120l-19 50q42 19 57 35t22 49h-59l27 130h120l-20 -97q-15 -71 -39.5 -105.5t-88.5 -61.5zM186 -120l-19 50q42 19 57 35t22 49h-58l26 130h120l-20 -97q-15 -71 -39.5 -105.5t-88.5 -61.5z" />
    <glyph glyph-name="dagger" unicode="&#x2020;" horiz-adv-x="556"
d="M117 -166l132 619h-174l18 92h174l50 231h96l-50 -231h175l-18 -92h-175l-132 -619h-96z" />
    <glyph glyph-name="daggerdbl" unicode="&#x2021;" horiz-adv-x="556"
d="M117 -166l53 252h-174l18 92h174l61 275h-174l18 92h174l50 231h96l-50 -231h175l-18 -92h-175l-60 -275h175l-19 -92h-175l-53 -252h-96z" />
    <glyph glyph-name="bullet" unicode="&#x2022;" horiz-adv-x="354"
d="M65 214l36 180h161l-36 -180h-161z" />
    <glyph glyph-name="ellipsis" unicode="&#x2026;" horiz-adv-x="725"
d="M-12 0l26 132h122l-27 -132h-121zM223 0l27 132h123l-28 -132h-122zM460 0l27 132h122l-27 -132h-122z" />
    <glyph glyph-name="perthousand" unicode="&#x2030;" horiz-adv-x="1561"
d="M243 278q-91 0 -135.5 46t-44.5 127q0 132 66 217t170 85q91 0 135.5 -48t44.5 -129q0 -134 -66.5 -216t-169.5 -82zM250 356q65 0 103 62t38 154q0 100 -96 100q-68 0 -105.5 -62.5t-37.5 -154.5q0 -99 98 -99zM809 -11q-93 0 -137 46t-44 127q0 132 66 217t170 85
q91 0 135.5 -48t44.5 -129q0 -134 -67 -216t-168 -82zM814 67q65 0 103 62t38 154q0 101 -96 101q-67 0 -104.5 -62.5t-37.5 -155.5q0 -99 97 -99zM1264 -11q-92 0 -136 46.5t-44 126.5q0 132 66 217t170 85q91 0 136 -48t45 -129q0 -134 -67.5 -216t-169.5 -82zM1271 67
q64 0 102.5 62t38.5 154q0 101 -97 101q-67 0 -104.5 -62.5t-37.5 -155.5q0 -99 98 -99zM233 0l559 741h92l-559 -741h-92z" />
    <glyph glyph-name="guilsinglleft" unicode="&#x2039;" horiz-adv-x="439"
d="M160 0l-92 277l210 279h88l-203 -279l84 -277h-87z" />
    <glyph glyph-name="guilsinglright" unicode="&#x203a;" horiz-adv-x="439"
d="M35 0l203 279l-84 277h88l92 -278l-210 -278h-89z" />
    <glyph glyph-name="fraction" unicode="&#x2044;" horiz-adv-x="504"
d="M-78 0l573 741h88l-573 -741h-88z" />
    <glyph glyph-name="fraction" unicode="&#x2215;" horiz-adv-x="504"
d="M-78 0l573 741h88l-573 -741h-88z" />
    <glyph glyph-name="Euro" unicode="&#x20ac;" horiz-adv-x="657"
d="M47 412l15 78h103q40 120 116 191.5t185 71.5q125 0 201 -51l-59 -79q-58 38 -144 38q-138 0 -201 -171h244l-15 -78h-252q-10 -54 -13 -77h247l-16 -79h-236v-20q0 -77 35 -118t115 -41q67 0 119 28l44 -75q-75 -42 -174 -42q-234 0 -234 244v24h-113l15 79h103
q5 40 12 77h-97z" />
    <glyph glyph-name="trademark" unicode="&#x2122;" horiz-adv-x="1092"
d="M473 286l97 455h85l70 -355l224 355h86l-97 -455h-74l70 323l-204 -323h-51l-64 323l-72 -323h-70zM198 286l82 385h-154l14 70h385l-15 -70h-155l-82 -385h-75z" />
    <glyph glyph-name="partialdiff" unicode="&#x2202;" horiz-adv-x="832"
d="M126 120q-90 108 -90 251q0 142 90 250q3 -2 7 -6q-87 -106 -87 -244t88 -244zM228 211q-57 70 -57 160t56 160q1 -1 4 -3.5t4 -3.5q-54 -67 -54 -153q0 -88 54 -153zM264 243q-45 56 -45 128t45 128q2 -1 4 -3.5t4 -3.5q-43 -53 -43 -121t43 -121q-2 -1 -4 -3.5t-4 -3.5
zM316 289q-28 36 -28 82q0 47 28 81l7 -7q-25 -33 -25 -74t26 -75q-2 -1 -4 -3.5t-4 -3.5zM349 320q-16 22 -16 51t16 51q1 -1 4 -3.5t4 -3.5q-14 -20 -14 -44t14 -44q-3 -2 -8 -7zM378 346q-7 12 -7 25t7 25l6 -5q-5 -10 -5 -20t5 -20q-2 -2 -6 -5zM416 60q-116 0 -201 77
l7 7q84 -74 194 -74q111 0 193 74q1 -2 3.5 -4t3.5 -4q-86 -76 -200 -76zM416 324q-15 0 -27 9l6 6q11 -7 21 -7q13 0 21 7q2 -2 5 -6q-10 -9 -26 -9zM482 319q-3 4 -7 7q14 20 14 45t-14 44l7 7q17 -22 17 -51t-17 -52zM292 269q-35 45 -35 102q0 58 36 102l7 -7
q-33 -43 -33 -95t33 -95q-5 -5 -8 -7zM416 -17q-144 0 -252 97l7 8q105 -95 245 -95q139 0 244 94l2 -1l4 -4l1 -2q-107 -97 -251 -97zM416 121q-92 0 -161 61l7 8q65 -59 154 -59t153 59q1 -2 3.5 -4t3.5 -4q-67 -61 -160 -61zM416 170q-72 0 -129 49l7 7q52 -46 122 -46
t121 46q1 -2 3.5 -4t3.5 -4q-54 -48 -128 -48zM416 209q-57 0 -103 38l7 8q43 -36 96 -36t96 36q2 -2 6 -8q-45 -38 -102 -38zM416 265q-37 0 -66 24l7 8q25 -22 59 -22q33 0 58 22q1 -1 3.5 -4t3.5 -4q-29 -24 -65 -24zM358 445l-8 8q29 24 66 24t66 -24l-8 -8
q-25 22 -58 22t-58 -22zM570 552q-65 59 -154 59q-87 0 -153 -58l-7 7q69 61 160 61q92 0 161 -61q-2 -3 -7 -8zM454 346l-6 5q5 10 5 20t-5 20l6 5q7 -12 7 -25t-7 -25zM468 333q-5 5 -8 7q10 15 10 31t-10 31l8 7q12 -17 12 -38t-12 -38zM498 306q-3 2 -8 7q19 25 19 58
t-19 58l7 7q22 -28 22 -65q0 -34 -21 -65zM540 269q-2 1 -4 3.5t-4 3.5q33 43 33 95q0 53 -34 95l8 7q36 -44 36 -102q0 -57 -35 -102zM568 243q-5 5 -8 7q43 53 43 121t-43 121l8 7q45 -56 45 -128t-45 -128zM604 211q-3 2 -8 7q55 66 55 153q0 89 -55 153l8 7
q57 -68 57 -160t-57 -160zM649 171q-1 1 -3.5 3t-3.5 3q69 85 69 194q0 110 -70 193l8 7q72 -86 72 -200t-72 -200zM706 120q-3 3 -8 7q88 106 88 244t-88 244l8 7q90 -108 90 -251q0 -142 -90 -251zM183 170q-72 88 -72 201t71 200q1 -1 3.5 -3t4.5 -4q-69 -83 -69 -193
q0 -111 69 -194zM334 306q-21 29 -21 65t21 65q3 -2 8 -7q-19 -25 -19 -58q0 -32 19 -57zM364 333q-12 17 -12 38t12 38l7 -7q-9 -16 -9 -31t9 -31zM395 403l-5 6q10 9 26 9t26 -9l-5 -6q-11 7 -21 7q-13 0 -21 -7zM384 416l-7 7q17 14 39 14q21 0 38 -14q-4 -4 -6 -7
q-14 12 -32 12q-17 0 -32 -12zM371 430l-7 8q22 19 52 19t52 -19l-7 -8q-19 17 -45 17t-45 -17zM295 516l-7 8q54 48 128 48t128 -49l-2 -1l-2 -4l-2 -2q-52 46 -122 46t-121 -46zM416 240q-48 0 -83 30l7 8q35 -28 76 -28q42 0 75 28l7 -7q-36 -31 -82 -31zM416 285
q-29 0 -53 19l7 8q22 -17 46 -17q25 0 45 17l7 -8q-22 -19 -52 -19zM416 305q-21 0 -40 14l7 7q17 -12 33 -12q17 0 32 12l7 -7q-17 -14 -39 -14zM341 464l-7 7q36 31 82 31q47 0 82 -30l-7 -8q-33 28 -75 28t-75 -28zM320 487l-7 8q44 38 103 38q58 0 102 -39l-6 -7
q-41 36 -96 36q-53 0 -96 -36zM610 597q-81 75 -194 75q-110 0 -194 -74l-7 7q87 77 201 77t201 -77zM172 654l-7 8q107 97 251 97t252 -97l-7 -8q-105 95 -245 95q-139 0 -244 -95zM516 290l-7 7q25 33 25 74t-26 75l8 7q28 -36 28 -82q0 -47 -28 -81z" />
    <glyph glyph-name="product" unicode="&#x220f;" horiz-adv-x="832"
d="M126 120q-90 108 -90 251q0 142 90 250q3 -2 7 -6q-87 -106 -87 -244t88 -244zM228 211q-57 70 -57 160t56 160q1 -1 4 -3.5t4 -3.5q-54 -67 -54 -153q0 -88 54 -153zM264 243q-45 56 -45 128t45 128q2 -1 4 -3.5t4 -3.5q-43 -53 -43 -121t43 -121q-2 -1 -4 -3.5t-4 -3.5
zM316 289q-28 36 -28 82q0 47 28 81l7 -7q-25 -33 -25 -74t26 -75q-2 -1 -4 -3.5t-4 -3.5zM349 320q-16 22 -16 51t16 51q1 -1 4 -3.5t4 -3.5q-14 -20 -14 -44t14 -44q-3 -2 -8 -7zM378 346q-7 12 -7 25t7 25l6 -5q-5 -10 -5 -20t5 -20q-2 -2 -6 -5zM416 60q-116 0 -201 77
l7 7q84 -74 194 -74q111 0 193 74q1 -2 3.5 -4t3.5 -4q-86 -76 -200 -76zM416 324q-15 0 -27 9l6 6q11 -7 21 -7q13 0 21 7q2 -2 5 -6q-10 -9 -26 -9zM482 319q-3 4 -7 7q14 20 14 45t-14 44l7 7q17 -22 17 -51t-17 -52zM292 269q-35 45 -35 102q0 58 36 102l7 -7
q-33 -43 -33 -95t33 -95q-5 -5 -8 -7zM416 -17q-144 0 -252 97l7 8q105 -95 245 -95q139 0 244 94l2 -1l4 -4l1 -2q-107 -97 -251 -97zM416 121q-92 0 -161 61l7 8q65 -59 154 -59t153 59q1 -2 3.5 -4t3.5 -4q-67 -61 -160 -61zM416 170q-72 0 -129 49l7 7q52 -46 122 -46
t121 46q1 -2 3.5 -4t3.5 -4q-54 -48 -128 -48zM416 209q-57 0 -103 38l7 8q43 -36 96 -36t96 36q2 -2 6 -8q-45 -38 -102 -38zM416 265q-37 0 -66 24l7 8q25 -22 59 -22q33 0 58 22q1 -1 3.5 -4t3.5 -4q-29 -24 -65 -24zM358 445l-8 8q29 24 66 24t66 -24l-8 -8
q-25 22 -58 22t-58 -22zM570 552q-65 59 -154 59q-87 0 -153 -58l-7 7q69 61 160 61q92 0 161 -61q-2 -3 -7 -8zM454 346l-6 5q5 10 5 20t-5 20l6 5q7 -12 7 -25t-7 -25zM468 333q-5 5 -8 7q10 15 10 31t-10 31l8 7q12 -17 12 -38t-12 -38zM498 306q-3 2 -8 7q19 25 19 58
t-19 58l7 7q22 -28 22 -65q0 -34 -21 -65zM540 269q-2 1 -4 3.5t-4 3.5q33 43 33 95q0 53 -34 95l8 7q36 -44 36 -102q0 -57 -35 -102zM568 243q-5 5 -8 7q43 53 43 121t-43 121l8 7q45 -56 45 -128t-45 -128zM604 211q-3 2 -8 7q55 66 55 153q0 89 -55 153l8 7
q57 -68 57 -160t-57 -160zM649 171q-1 1 -3.5 3t-3.5 3q69 85 69 194q0 110 -70 193l8 7q72 -86 72 -200t-72 -200zM706 120q-3 3 -8 7q88 106 88 244t-88 244l8 7q90 -108 90 -251q0 -142 -90 -251zM183 170q-72 88 -72 201t71 200q1 -1 3.5 -3t4.5 -4q-69 -83 -69 -193
q0 -111 69 -194zM334 306q-21 29 -21 65t21 65q3 -2 8 -7q-19 -25 -19 -58q0 -32 19 -57zM364 333q-12 17 -12 38t12 38l7 -7q-9 -16 -9 -31t9 -31zM395 403l-5 6q10 9 26 9t26 -9l-5 -6q-11 7 -21 7q-13 0 -21 -7zM384 416l-7 7q17 14 39 14q21 0 38 -14q-4 -4 -6 -7
q-14 12 -32 12q-17 0 -32 -12zM371 430l-7 8q22 19 52 19t52 -19l-7 -8q-19 17 -45 17t-45 -17zM295 516l-7 8q54 48 128 48t128 -49l-2 -1l-2 -4l-2 -2q-52 46 -122 46t-121 -46zM416 240q-48 0 -83 30l7 8q35 -28 76 -28q42 0 75 28l7 -7q-36 -31 -82 -31zM416 285
q-29 0 -53 19l7 8q22 -17 46 -17q25 0 45 17l7 -8q-22 -19 -52 -19zM416 305q-21 0 -40 14l7 7q17 -12 33 -12q17 0 32 12l7 -7q-17 -14 -39 -14zM341 464l-7 7q36 31 82 31q47 0 82 -30l-7 -8q-33 28 -75 28t-75 -28zM320 487l-7 8q44 38 103 38q58 0 102 -39l-6 -7
q-41 36 -96 36q-53 0 -96 -36zM610 597q-81 75 -194 75q-110 0 -194 -74l-7 7q87 77 201 77t201 -77zM172 654l-7 8q107 97 251 97t252 -97l-7 -8q-105 95 -245 95q-139 0 -244 -95zM516 290l-7 7q25 33 25 74t-26 75l8 7q28 -36 28 -82q0 -47 -28 -81z" />
    <glyph glyph-name="summation" unicode="&#x2211;" horiz-adv-x="832"
d="M126 120q-90 108 -90 251q0 142 90 250q3 -2 7 -6q-87 -106 -87 -244t88 -244zM228 211q-57 70 -57 160t56 160q1 -1 4 -3.5t4 -3.5q-54 -67 -54 -153q0 -88 54 -153zM264 243q-45 56 -45 128t45 128q2 -1 4 -3.5t4 -3.5q-43 -53 -43 -121t43 -121q-2 -1 -4 -3.5t-4 -3.5
zM316 289q-28 36 -28 82q0 47 28 81l7 -7q-25 -33 -25 -74t26 -75q-2 -1 -4 -3.5t-4 -3.5zM349 320q-16 22 -16 51t16 51q1 -1 4 -3.5t4 -3.5q-14 -20 -14 -44t14 -44q-3 -2 -8 -7zM378 346q-7 12 -7 25t7 25l6 -5q-5 -10 -5 -20t5 -20q-2 -2 -6 -5zM416 60q-116 0 -201 77
l7 7q84 -74 194 -74q111 0 193 74q1 -2 3.5 -4t3.5 -4q-86 -76 -200 -76zM416 324q-15 0 -27 9l6 6q11 -7 21 -7q13 0 21 7q2 -2 5 -6q-10 -9 -26 -9zM482 319q-3 4 -7 7q14 20 14 45t-14 44l7 7q17 -22 17 -51t-17 -52zM292 269q-35 45 -35 102q0 58 36 102l7 -7
q-33 -43 -33 -95t33 -95q-5 -5 -8 -7zM416 -17q-144 0 -252 97l7 8q105 -95 245 -95q139 0 244 94l2 -1l4 -4l1 -2q-107 -97 -251 -97zM416 121q-92 0 -161 61l7 8q65 -59 154 -59t153 59q1 -2 3.5 -4t3.5 -4q-67 -61 -160 -61zM416 170q-72 0 -129 49l7 7q52 -46 122 -46
t121 46q1 -2 3.5 -4t3.5 -4q-54 -48 -128 -48zM416 209q-57 0 -103 38l7 8q43 -36 96 -36t96 36q2 -2 6 -8q-45 -38 -102 -38zM416 265q-37 0 -66 24l7 8q25 -22 59 -22q33 0 58 22q1 -1 3.5 -4t3.5 -4q-29 -24 -65 -24zM358 445l-8 8q29 24 66 24t66 -24l-8 -8
q-25 22 -58 22t-58 -22zM570 552q-65 59 -154 59q-87 0 -153 -58l-7 7q69 61 160 61q92 0 161 -61q-2 -3 -7 -8zM454 346l-6 5q5 10 5 20t-5 20l6 5q7 -12 7 -25t-7 -25zM468 333q-5 5 -8 7q10 15 10 31t-10 31l8 7q12 -17 12 -38t-12 -38zM498 306q-3 2 -8 7q19 25 19 58
t-19 58l7 7q22 -28 22 -65q0 -34 -21 -65zM540 269q-2 1 -4 3.5t-4 3.5q33 43 33 95q0 53 -34 95l8 7q36 -44 36 -102q0 -57 -35 -102zM568 243q-5 5 -8 7q43 53 43 121t-43 121l8 7q45 -56 45 -128t-45 -128zM604 211q-3 2 -8 7q55 66 55 153q0 89 -55 153l8 7
q57 -68 57 -160t-57 -160zM649 171q-1 1 -3.5 3t-3.5 3q69 85 69 194q0 110 -70 193l8 7q72 -86 72 -200t-72 -200zM706 120q-3 3 -8 7q88 106 88 244t-88 244l8 7q90 -108 90 -251q0 -142 -90 -251zM183 170q-72 88 -72 201t71 200q1 -1 3.5 -3t4.5 -4q-69 -83 -69 -193
q0 -111 69 -194zM334 306q-21 29 -21 65t21 65q3 -2 8 -7q-19 -25 -19 -58q0 -32 19 -57zM364 333q-12 17 -12 38t12 38l7 -7q-9 -16 -9 -31t9 -31zM395 403l-5 6q10 9 26 9t26 -9l-5 -6q-11 7 -21 7q-13 0 -21 -7zM384 416l-7 7q17 14 39 14q21 0 38 -14q-4 -4 -6 -7
q-14 12 -32 12q-17 0 -32 -12zM371 430l-7 8q22 19 52 19t52 -19l-7 -8q-19 17 -45 17t-45 -17zM295 516l-7 8q54 48 128 48t128 -49l-2 -1l-2 -4l-2 -2q-52 46 -122 46t-121 -46zM416 240q-48 0 -83 30l7 8q35 -28 76 -28q42 0 75 28l7 -7q-36 -31 -82 -31zM416 285
q-29 0 -53 19l7 8q22 -17 46 -17q25 0 45 17l7 -8q-22 -19 -52 -19zM416 305q-21 0 -40 14l7 7q17 -12 33 -12q17 0 32 12l7 -7q-17 -14 -39 -14zM341 464l-7 7q36 31 82 31q47 0 82 -30l-7 -8q-33 28 -75 28t-75 -28zM320 487l-7 8q44 38 103 38q58 0 102 -39l-6 -7
q-41 36 -96 36q-53 0 -96 -36zM610 597q-81 75 -194 75q-110 0 -194 -74l-7 7q87 77 201 77t201 -77zM172 654l-7 8q107 97 251 97t252 -97l-7 -8q-105 95 -245 95q-139 0 -244 -95zM516 290l-7 7q25 33 25 74t-26 75l8 7q28 -36 28 -82q0 -47 -28 -81z" />
    <glyph glyph-name="minus" unicode="&#x2212;" horiz-adv-x="703"
d="M89 306l20 93h497l-20 -93h-497z" />
    <glyph glyph-name="radical" unicode="&#x221a;" horiz-adv-x="669"
d="M142 -5l-76 424h99l53 -301l378 623h98l-451 -746h-101z" />
    <glyph glyph-name="infinity" unicode="&#x221e;" horiz-adv-x="939"
d="M335 -165l135 633h-217l-135 -633h-98l135 633h-105l19 88h105l12 56q18 86 64 125t143 39h55l-17 -85h-36q-56 0 -80 -22.5t-34 -67.5l-10 -45h218l12 56q19 86 64.5 125t142.5 39h54l-17 -85h-35q-55 0 -79.5 -22.5t-35.5 -67.5l-10 -45h131l-18 -88h-131l-134 -633
h-98zM685 0l118 556h97l-118 -556h-97zM818 623l24 118h98l-25 -118h-97z" />
    <glyph glyph-name="integral" unicode="&#x222b;" horiz-adv-x="832"
d="M126 120q-90 108 -90 251q0 142 90 250q3 -2 7 -6q-87 -106 -87 -244t88 -244zM228 211q-57 70 -57 160t56 160q1 -1 4 -3.5t4 -3.5q-54 -67 -54 -153q0 -88 54 -153zM264 243q-45 56 -45 128t45 128q2 -1 4 -3.5t4 -3.5q-43 -53 -43 -121t43 -121q-2 -1 -4 -3.5t-4 -3.5
zM316 289q-28 36 -28 82q0 47 28 81l7 -7q-25 -33 -25 -74t26 -75q-2 -1 -4 -3.5t-4 -3.5zM349 320q-16 22 -16 51t16 51q1 -1 4 -3.5t4 -3.5q-14 -20 -14 -44t14 -44q-3 -2 -8 -7zM378 346q-7 12 -7 25t7 25l6 -5q-5 -10 -5 -20t5 -20q-2 -2 -6 -5zM416 60q-116 0 -201 77
l7 7q84 -74 194 -74q111 0 193 74q1 -2 3.5 -4t3.5 -4q-86 -76 -200 -76zM416 324q-15 0 -27 9l6 6q11 -7 21 -7q13 0 21 7q2 -2 5 -6q-10 -9 -26 -9zM482 319q-3 4 -7 7q14 20 14 45t-14 44l7 7q17 -22 17 -51t-17 -52zM292 269q-35 45 -35 102q0 58 36 102l7 -7
q-33 -43 -33 -95t33 -95q-5 -5 -8 -7zM416 -17q-144 0 -252 97l7 8q105 -95 245 -95q139 0 244 94l2 -1l4 -4l1 -2q-107 -97 -251 -97zM416 121q-92 0 -161 61l7 8q65 -59 154 -59t153 59q1 -2 3.5 -4t3.5 -4q-67 -61 -160 -61zM416 170q-72 0 -129 49l7 7q52 -46 122 -46
t121 46q1 -2 3.5 -4t3.5 -4q-54 -48 -128 -48zM416 209q-57 0 -103 38l7 8q43 -36 96 -36t96 36q2 -2 6 -8q-45 -38 -102 -38zM416 265q-37 0 -66 24l7 8q25 -22 59 -22q33 0 58 22q1 -1 3.5 -4t3.5 -4q-29 -24 -65 -24zM358 445l-8 8q29 24 66 24t66 -24l-8 -8
q-25 22 -58 22t-58 -22zM570 552q-65 59 -154 59q-87 0 -153 -58l-7 7q69 61 160 61q92 0 161 -61q-2 -3 -7 -8zM454 346l-6 5q5 10 5 20t-5 20l6 5q7 -12 7 -25t-7 -25zM468 333q-5 5 -8 7q10 15 10 31t-10 31l8 7q12 -17 12 -38t-12 -38zM498 306q-3 2 -8 7q19 25 19 58
t-19 58l7 7q22 -28 22 -65q0 -34 -21 -65zM540 269q-2 1 -4 3.5t-4 3.5q33 43 33 95q0 53 -34 95l8 7q36 -44 36 -102q0 -57 -35 -102zM568 243q-5 5 -8 7q43 53 43 121t-43 121l8 7q45 -56 45 -128t-45 -128zM604 211q-3 2 -8 7q55 66 55 153q0 89 -55 153l8 7
q57 -68 57 -160t-57 -160zM649 171q-1 1 -3.5 3t-3.5 3q69 85 69 194q0 110 -70 193l8 7q72 -86 72 -200t-72 -200zM706 120q-3 3 -8 7q88 106 88 244t-88 244l8 7q90 -108 90 -251q0 -142 -90 -251zM183 170q-72 88 -72 201t71 200q1 -1 3.5 -3t4.5 -4q-69 -83 -69 -193
q0 -111 69 -194zM334 306q-21 29 -21 65t21 65q3 -2 8 -7q-19 -25 -19 -58q0 -32 19 -57zM364 333q-12 17 -12 38t12 38l7 -7q-9 -16 -9 -31t9 -31zM395 403l-5 6q10 9 26 9t26 -9l-5 -6q-11 7 -21 7q-13 0 -21 -7zM384 416l-7 7q17 14 39 14q21 0 38 -14q-4 -4 -6 -7
q-14 12 -32 12q-17 0 -32 -12zM371 430l-7 8q22 19 52 19t52 -19l-7 -8q-19 17 -45 17t-45 -17zM295 516l-7 8q54 48 128 48t128 -49l-2 -1l-2 -4l-2 -2q-52 46 -122 46t-121 -46zM416 240q-48 0 -83 30l7 8q35 -28 76 -28q42 0 75 28l7 -7q-36 -31 -82 -31zM416 285
q-29 0 -53 19l7 8q22 -17 46 -17q25 0 45 17l7 -8q-22 -19 -52 -19zM416 305q-21 0 -40 14l7 7q17 -12 33 -12q17 0 32 12l7 -7q-17 -14 -39 -14zM341 464l-7 7q36 31 82 31q47 0 82 -30l-7 -8q-33 28 -75 28t-75 -28zM320 487l-7 8q44 38 103 38q58 0 102 -39l-6 -7
q-41 36 -96 36q-53 0 -96 -36zM610 597q-81 75 -194 75q-110 0 -194 -74l-7 7q87 77 201 77t201 -77zM172 654l-7 8q107 97 251 97t252 -97l-7 -8q-105 95 -245 95q-139 0 -244 -95zM516 290l-7 7q25 33 25 74t-26 75l8 7q28 -36 28 -82q0 -47 -28 -81z" />
    <glyph glyph-name="approxequal" unicode="&#x2248;" horiz-adv-x="703"
d="M122 166l-51 50q75 87 156 87q47 0 105 -29.5t83 -29.5q39 0 101 62l50 -51q-84 -91 -154 -91q-41 0 -98 29t-91 29q-49 0 -101 -56zM171 397l-50 51q75 87 156 87q47 0 104.5 -29t82.5 -29q43 0 102 61l50 -52q-81 -90 -154 -90q-42 0 -99 29t-89 29q-50 0 -103 -57z
" />
    <glyph glyph-name="notequal" unicode="&#x2260;" horiz-adv-x="709"
d="M335 -165l135 633h-217l-135 -633h-98l135 633h-105l19 88h105l12 56q18 86 64 125t143 39h55l-17 -85h-36q-56 0 -80 -22.5t-34 -67.5l-10 -45h218l12 56q19 86 64.5 125t142.5 39h63l-17 -85h-44q-55 0 -79.5 -22.5t-35.5 -67.5l-10 -45h139l-18 -88h-139l-134 -633
h-98z" />
    <glyph glyph-name="lessequal" unicode="&#x2264;" horiz-adv-x="703"
d="M501 103l-404 219l13 66l498 219l-18 -90l-388 -165l317 -165zM31 14l17 84h451l-17 -84h-451z" />
    <glyph glyph-name="greaterequal" unicode="&#x2265;" horiz-adv-x="703"
d="M90 103l17 86l387 165l-317 164l19 89l405 -219l-14 -66zM71 14l17 84h450l-17 -84h-450z" />
    <glyph glyph-name="lozenge" unicode="&#x25ca;" horiz-adv-x="718"
d="M50 468l19 88h105l12 56q18 86 64 125t143 39h53l-17 -85h-34q-56 0 -80 -22.5t-34 -67.5l-10 -45h210l52 158l78 15l-37 -173h136l-18 -88h-137l-64 -303q-5 -25 -4.5 -42.5t16.5 -27t52 -9.5h54l-17 -86q-13 -1 -69 -1q-67 0 -100 20.5t-36 57.5t7 89l64 302h-205
l-135 -633h-98l135 633h-105z" />
    <glyph glyph-name="apple" unicode="&#xf8ff;" horiz-adv-x="832"
d="M126 120q-90 108 -90 251q0 142 90 250q3 -2 7 -6q-87 -106 -87 -244t88 -244zM228 211q-57 70 -57 160t56 160q1 -1 4 -3.5t4 -3.5q-54 -67 -54 -153q0 -88 54 -153zM264 243q-45 56 -45 128t45 128q2 -1 4 -3.5t4 -3.5q-43 -53 -43 -121t43 -121q-2 -1 -4 -3.5t-4 -3.5
zM316 289q-28 36 -28 82q0 47 28 81l7 -7q-25 -33 -25 -74t26 -75q-2 -1 -4 -3.5t-4 -3.5zM349 320q-16 22 -16 51t16 51q1 -1 4 -3.5t4 -3.5q-14 -20 -14 -44t14 -44q-3 -2 -8 -7zM378 346q-7 12 -7 25t7 25l6 -5q-5 -10 -5 -20t5 -20q-2 -2 -6 -5zM416 60q-116 0 -201 77
l7 7q84 -74 194 -74q111 0 193 74q1 -2 3.5 -4t3.5 -4q-86 -76 -200 -76zM416 324q-15 0 -27 9l6 6q11 -7 21 -7q13 0 21 7q2 -2 5 -6q-10 -9 -26 -9zM482 319q-3 4 -7 7q14 20 14 45t-14 44l7 7q17 -22 17 -51t-17 -52zM292 269q-35 45 -35 102q0 58 36 102l7 -7
q-33 -43 -33 -95t33 -95q-5 -5 -8 -7zM416 -17q-144 0 -252 97l7 8q105 -95 245 -95q139 0 244 94l2 -1l4 -4l1 -2q-107 -97 -251 -97zM416 121q-92 0 -161 61l7 8q65 -59 154 -59t153 59q1 -2 3.5 -4t3.5 -4q-67 -61 -160 -61zM416 170q-72 0 -129 49l7 7q52 -46 122 -46
t121 46q1 -2 3.5 -4t3.5 -4q-54 -48 -128 -48zM416 209q-57 0 -103 38l7 8q43 -36 96 -36t96 36q2 -2 6 -8q-45 -38 -102 -38zM416 265q-37 0 -66 24l7 8q25 -22 59 -22q33 0 58 22q1 -1 3.5 -4t3.5 -4q-29 -24 -65 -24zM358 445l-8 8q29 24 66 24t66 -24l-8 -8
q-25 22 -58 22t-58 -22zM570 552q-65 59 -154 59q-87 0 -153 -58l-7 7q69 61 160 61q92 0 161 -61q-2 -3 -7 -8zM454 346l-6 5q5 10 5 20t-5 20l6 5q7 -12 7 -25t-7 -25zM468 333q-5 5 -8 7q10 15 10 31t-10 31l8 7q12 -17 12 -38t-12 -38zM498 306q-3 2 -8 7q19 25 19 58
t-19 58l7 7q22 -28 22 -65q0 -34 -21 -65zM540 269q-2 1 -4 3.5t-4 3.5q33 43 33 95q0 53 -34 95l8 7q36 -44 36 -102q0 -57 -35 -102zM568 243q-5 5 -8 7q43 53 43 121t-43 121l8 7q45 -56 45 -128t-45 -128zM604 211q-3 2 -8 7q55 66 55 153q0 89 -55 153l8 7
q57 -68 57 -160t-57 -160zM649 171q-1 1 -3.5 3t-3.5 3q69 85 69 194q0 110 -70 193l8 7q72 -86 72 -200t-72 -200zM706 120q-3 3 -8 7q88 106 88 244t-88 244l8 7q90 -108 90 -251q0 -142 -90 -251zM183 170q-72 88 -72 201t71 200q1 -1 3.5 -3t4.5 -4q-69 -83 -69 -193
q0 -111 69 -194zM334 306q-21 29 -21 65t21 65q3 -2 8 -7q-19 -25 -19 -58q0 -32 19 -57zM364 333q-12 17 -12 38t12 38l7 -7q-9 -16 -9 -31t9 -31zM395 403l-5 6q10 9 26 9t26 -9l-5 -6q-11 7 -21 7q-13 0 -21 -7zM384 416l-7 7q17 14 39 14q21 0 38 -14q-4 -4 -6 -7
q-14 12 -32 12q-17 0 -32 -12zM371 430l-7 8q22 19 52 19t52 -19l-7 -8q-19 17 -45 17t-45 -17zM295 516l-7 8q54 48 128 48t128 -49l-2 -1l-2 -4l-2 -2q-52 46 -122 46t-121 -46zM416 240q-48 0 -83 30l7 8q35 -28 76 -28q42 0 75 28l7 -7q-36 -31 -82 -31zM416 285
q-29 0 -53 19l7 8q22 -17 46 -17q25 0 45 17l7 -8q-22 -19 -52 -19zM416 305q-21 0 -40 14l7 7q17 -12 33 -12q17 0 32 12l7 -7q-17 -14 -39 -14zM341 464l-7 7q36 31 82 31q47 0 82 -30l-7 -8q-33 28 -75 28t-75 -28zM320 487l-7 8q44 38 103 38q58 0 102 -39l-6 -7
q-41 36 -96 36q-53 0 -96 -36zM610 597q-81 75 -194 75q-110 0 -194 -74l-7 7q87 77 201 77t201 -77zM172 654l-7 8q107 97 251 97t252 -97l-7 -8q-105 95 -245 95q-139 0 -244 -95zM516 290l-7 7q25 33 25 74t-26 75l8 7q28 -36 28 -82q0 -47 -28 -81z" />
    </font>
</defs>
</svg>
